<svg xmlns="http://www.w3.org/2000/svg" viewBox="0 0 68.97 68.97"><defs><style>.cls-1{fill:#fff;}.cls-2{fill:none;}</style></defs><g id="Capa_2" data-name="Capa 2"><g id="Capa_1-2" data-name="Capa 1"><path class="cls-1" d="M16,22.05H13V15.91h13.8c0-.61,0-1.12,0-1.62a4.66,4.66,0,0,1,4.61-4.62c2,0,4,0,6.06,0a4.65,4.65,0,0,1,4.73,4.79v1.36H56V22H53v1.78q0,15,0,30a9.45,9.45,0,0,1-.15,1.92,4.44,4.44,0,0,1-4.32,3.6q-14,0-28,0A4.59,4.59,0,0,1,16,54.55Q16,39.28,16,24Zm7.75,32.54h3V26.78h-3Zm9.23,0h3V26.81H33Zm12.19,0V26.78H42.24V54.61Z"/><rect class="cls-2" width="68.97" height="68.97"/></g></g></svg>