<svg xmlns="http://www.w3.org/2000/svg" viewBox="0 0 68.97 68.97"><defs><style>.cls-1{fill:#fff;}.cls-2{fill:none;}</style></defs><g id="Capa_2" data-name="Capa 2"><g id="Capa_1-2" data-name="Capa 1"><path class="cls-1" d="M9.76,16.94c.12-.32.25-.64.36-1a6.87,6.87,0,0,1,6.35-4.81c5.77-.05,11.54,0,17.31,0a1.56,1.56,0,0,1,1.73,1.6c0,1-.69,1.58-1.86,1.59H17.48c-3,0-4.52,1.43-4.52,4.47q0,16.24,0,32.49a7.81,7.81,0,0,0,.23,2.17,3.61,3.61,0,0,0,3.7,2.58H36.3c5.2,0,10.4,0,15.6,0A3.76,3.76,0,0,0,56,52c0-4.73,0-9.46,0-14.19,0-.41,0-.83,0-1.24,0-.94.18-1.74,1.19-2s1.55.29,2,1V53.37c-.12.35-.23.71-.35,1.07a7,7,0,0,1-6.61,4.86c-11.84,0-23.69,0-35.53,0a8.24,8.24,0,0,1-3.42-1,7.13,7.13,0,0,1-3.54-5Z"/><path class="cls-1" d="M51.79,9.66C54,11.82,56.18,14,58.34,16.17c.78.79.69,1.63-.18,2.52-2.1,2.13-4.21,4.24-6.31,6.36q-10,10.08-20.06,20.15a4.93,4.93,0,0,1-1.74,1.09c-2.65.94-5.34,1.8-8,2.72a1.74,1.74,0,0,1-2-.32,1.81,1.81,0,0,1-.25-2c.94-2.78,1.84-5.57,2.79-8.34a3.53,3.53,0,0,1,.79-1.28Q36.58,23.75,49.84,10.43c.26-.27.54-.52.81-.77Zm-6.71,9.91a8.13,8.13,0,0,1-.61.81C39.34,25.55,34.29,30.82,29,35.85A15.84,15.84,0,0,0,24,44.24c-.05.22-.09.44-.16.77,1.56-.51,3-.92,4.37-1.47a5.87,5.87,0,0,0,2-1.24c4.56-4.53,9.07-9.1,13.61-13.65,1.73-1.74,3.47-3.45,5.22-5.2Zm9.67-2.18-3.46-3.53-3.47,3.51,3.44,3.5Z"/><rect class="cls-2" width="68.97" height="68.97"/></g></g></svg>