<svg xmlns="http://www.w3.org/2000/svg" viewBox="0 0 271.31 60"><defs><style>.cls-1{fill:#fff;}</style></defs><g id="Capa_2" data-name="Capa 2"><g id="Capa_1-2" data-name="Capa 1"><path class="cls-1" d="M84.35,42a2.43,2.43,0,0,1-.66-1.8V18a2.24,2.24,0,0,1,.62-1.71A2.36,2.36,0,0,1,86,15.64h9.34a9.65,9.65,0,0,1,6.68,2.15,7.64,7.64,0,0,1,2.39,6,7.69,7.69,0,0,1-2.39,6A9.56,9.56,0,0,1,95.38,32h-6.8v8.16a2.29,2.29,0,0,1-2.46,2.47A2.36,2.36,0,0,1,84.35,42ZM99.82,23.84q0-4.39-5-4.4H88.58v8.81h6.19Q99.83,28.25,99.82,23.84Z"/><path class="cls-1" d="M121.64,25.23q1.88,1.92,1.88,5.83v9.26a2.18,2.18,0,0,1-.61,1.62,2.31,2.31,0,0,1-1.67.58,2.25,2.25,0,0,1-1.62-.6,2.16,2.16,0,0,1-.62-1.6v-.83a5,5,0,0,1-2,2.31,6.1,6.1,0,0,1-3.21.84,7.4,7.4,0,0,1-3.38-.76A6,6,0,0,1,108,39.79a5.22,5.22,0,0,1-.88-3,4.69,4.69,0,0,1,1-3.23,6.33,6.33,0,0,1,3.4-1.71,31.17,31.17,0,0,1,6.49-.53h1v-.87a3.91,3.91,0,0,0-.8-2.72,3.38,3.38,0,0,0-2.58-.85,8.36,8.36,0,0,0-2.24.32q-1.14.33-2.7.93a3.84,3.84,0,0,1-1.44.5,1.42,1.42,0,0,1-1.12-.5,1.89,1.89,0,0,1-.44-1.29,1.92,1.92,0,0,1,.33-1.12,3,3,0,0,1,1.08-.89,12.35,12.35,0,0,1,3.17-1.14,16.23,16.23,0,0,1,3.62-.42C118.47,23.31,120.38,24,121.64,25.23ZM117.8,38a4.6,4.6,0,0,0,1.2-3.29v-.79h-.69a25,25,0,0,0-3.94.23,3.85,3.85,0,0,0-2,.79,2,2,0,0,0-.6,1.56,2.57,2.57,0,0,0,.85,2,3,3,0,0,0,2.11.78A4,4,0,0,0,117.8,38Z"/><path class="cls-1" d="M131.7,41.46a8,8,0,0,1-3.25-3.34,10.69,10.69,0,0,1-1.14-5,10.6,10.6,0,0,1,1.2-5.11,8.47,8.47,0,0,1,3.36-3.43,10,10,0,0,1,5-1.22,11,11,0,0,1,3,.42,9.93,9.93,0,0,1,2.64,1.14,2.35,2.35,0,0,1,1.22,2,2.11,2.11,0,0,1-.4,1.35,1.26,1.26,0,0,1-1,.51,2.26,2.26,0,0,1-.88-.19,9.59,9.59,0,0,1-.91-.45,10.53,10.53,0,0,0-1.59-.78,5,5,0,0,0-1.75-.29,4.47,4.47,0,0,0-3.63,1.54A6.77,6.77,0,0,0,132.21,33a6.72,6.72,0,0,0,1.27,4.39,4.47,4.47,0,0,0,3.63,1.54,4.68,4.68,0,0,0,1.69-.29,14.69,14.69,0,0,0,1.65-.78,9.52,9.52,0,0,1,1-.51,2.24,2.24,0,0,1,.83-.17,1.28,1.28,0,0,1,1,.53,2.09,2.09,0,0,1,.42,1.33,2.12,2.12,0,0,1-.29,1.12,2.61,2.61,0,0,1-.93.86,10.15,10.15,0,0,1-2.73,1.19,11.81,11.81,0,0,1-3.19.44A9.77,9.77,0,0,1,131.7,41.46Z"/><path class="cls-1" d="M164.26,31v9.34a2.2,2.2,0,0,1-.63,1.67,2.36,2.36,0,0,1-1.73.61,2.41,2.41,0,0,1-1.74-.61,2.18,2.18,0,0,1-.65-1.67V31a4.41,4.41,0,0,0-.81-2.94,3.26,3.26,0,0,0-2.57-.93,4.33,4.33,0,0,0-3.28,1.29,4.8,4.8,0,0,0-1.24,3.45v8.47A2.17,2.17,0,0,1,151,42a2.42,2.42,0,0,1-1.75.61,2.37,2.37,0,0,1-1.73-.61,2.23,2.23,0,0,1-.62-1.67V17.65a2.06,2.06,0,0,1,.66-1.59,2.44,2.44,0,0,1,1.73-.61A2.49,2.49,0,0,1,151,16a2,2,0,0,1,.64,1.56v8.84a6.24,6.24,0,0,1,2.53-2.25,8,8,0,0,1,3.59-.78Q164.26,23.39,164.26,31Z"/><path class="cls-1" d="M182.88,25.23c1.26,1.28,1.88,3.22,1.88,5.83v9.26a2.14,2.14,0,0,1-.61,1.62,2.29,2.29,0,0,1-1.67.58,2.23,2.23,0,0,1-1.61-.6,2.13,2.13,0,0,1-.63-1.6v-.83a4.9,4.9,0,0,1-2,2.31,6.05,6.05,0,0,1-3.21.84,7.43,7.43,0,0,1-3.38-.76,6,6,0,0,1-2.39-2.09,5.29,5.29,0,0,1-.87-3,4.73,4.73,0,0,1,1-3.23,6.36,6.36,0,0,1,3.4-1.71,31.23,31.23,0,0,1,6.49-.53h1v-.87a3.91,3.91,0,0,0-.79-2.72,3.42,3.42,0,0,0-2.59-.85,8.42,8.42,0,0,0-2.24.32c-.76.22-1.65.53-2.69.93a3.82,3.82,0,0,1-1.45.5,1.45,1.45,0,0,1-1.12-.5,1.88,1.88,0,0,1-.43-1.29,2,2,0,0,1,.32-1.12,3.13,3.13,0,0,1,1.08-.89,12.63,12.63,0,0,1,3.17-1.14,16.32,16.32,0,0,1,3.63-.42Q181,23.31,182.88,25.23ZM179.05,38a4.63,4.63,0,0,0,1.19-3.29v-.79h-.68a25.12,25.12,0,0,0-3.95.23,3.78,3.78,0,0,0-2,.79,2,2,0,0,0-.61,1.56,2.57,2.57,0,0,0,.86,2,3,3,0,0,0,2.1.78A4.06,4.06,0,0,0,179.05,38Z"/><path class="cls-1" d="M224.49,39.56a2.72,2.72,0,0,1-1,2.13,3.4,3.4,0,0,1-2.3.87,2.94,2.94,0,0,1-1.59-.45,3.12,3.12,0,0,1-1.14-1.37l-1.71-3.84h-12.3l-1.75,3.84a2.93,2.93,0,0,1-2.77,1.82,3.53,3.53,0,0,1-2.33-.87,2.67,2.67,0,0,1-1.05-2.13,3.38,3.38,0,0,1,.34-1.4l10-20.58A3.5,3.5,0,0,1,208.37,16a4.42,4.42,0,0,1,4.27,0,3.49,3.49,0,0,1,1.48,1.58l10,20.58A3.38,3.38,0,0,1,224.49,39.56Zm-17.7-7.89h7.6l-3.8-8.47Z"/><path class="cls-1" d="M243.61,24.55A8.2,8.2,0,0,1,246.53,28a11.93,11.93,0,0,1,1,5.13,11.6,11.6,0,0,1-1,5.07,7.61,7.61,0,0,1-7.2,4.53,7.47,7.47,0,0,1-3.28-.72,5.85,5.85,0,0,1-2.34-1.94v6.46a2.69,2.69,0,0,1-.91,2.13,3.48,3.48,0,0,1-2.39.79,3.58,3.58,0,0,1-2.5-.85,2.79,2.79,0,0,1-.95-2.18V26.5a3,3,0,0,1,.89-2.26,3.33,3.33,0,0,1,2.41-.85,3.44,3.44,0,0,1,2.33.76,2.85,2.85,0,0,1,1,2,5.43,5.43,0,0,1,2.34-2.09,7.47,7.47,0,0,1,3.39-.76A7.59,7.59,0,0,1,243.61,24.55Zm-3.65,12a5.37,5.37,0,0,0,.93-3.38,5.73,5.73,0,0,0-.95-3.55,3.18,3.18,0,0,0-2.69-1.24,3.22,3.22,0,0,0-2.7,1.22,5.58,5.58,0,0,0-1,3.49,5.46,5.46,0,0,0,1,3.44,3.29,3.29,0,0,0,2.73,1.19A3.22,3.22,0,0,0,240,36.53Z"/><path class="cls-1" d="M267.34,24.55A8.2,8.2,0,0,1,270.26,28a11.93,11.93,0,0,1,1.05,5.13,11.6,11.6,0,0,1-1.05,5.07,8,8,0,0,1-2.9,3.36,7.89,7.89,0,0,1-4.29,1.17,7.51,7.51,0,0,1-3.29-.72,5.75,5.75,0,0,1-2.33-1.94v6.46a2.72,2.72,0,0,1-.91,2.13,3.53,3.53,0,0,1-2.4.79,3.58,3.58,0,0,1-2.5-.85,2.79,2.79,0,0,1-.95-2.18V26.5a3,3,0,0,1,.89-2.26,3.33,3.33,0,0,1,2.41-.85,3.49,3.49,0,0,1,2.34.76,2.84,2.84,0,0,1,1,2,5.43,5.43,0,0,1,2.34-2.09,8,8,0,0,1,7.67.48Zm-3.65,12a5.37,5.37,0,0,0,.93-3.38,5.67,5.67,0,0,0-.95-3.55A3.18,3.18,0,0,0,261,28.36a3.22,3.22,0,0,0-2.7,1.22,5.58,5.58,0,0,0-.95,3.49,5.46,5.46,0,0,0,.95,3.44A3.31,3.31,0,0,0,261,37.7,3.21,3.21,0,0,0,263.69,36.53Z"/><path class="cls-1" d="M46.71,39.7s-10,.46-7.36-6.89c0,0,1.12,3,3.95,3.2,0,0-.67-3.19-3.41-3.69C39.89,32.32,47.05,28.7,46.71,39.7Z"/><path class="cls-1" d="M53.72,26.05s-6.06,8-10,1.24c0,0,3.06,1.1,5-1,0,0-2.88-1.53-5,.25C43.68,26.56,45.49,18.74,53.72,26.05Z"/><path class="cls-1" d="M47,15.42s-.58,10-7.61,6.6c0,0,3.15-.79,3.59-3.59,0,0-3.24.34-4,3C39,21.44,36.1,13.94,47,15.42Z"/><path class="cls-1" d="M20.75,14.79s10,.58,6.6,7.61c0,0-.79-3.15-3.59-3.59,0,0,.34,3.24,3,4C26.77,22.84,19.27,25.69,20.75,14.79Z"/><path class="cls-1" d="M34,11.12s7.41,6.77.32,10.07c0,0,1.38-3-.52-5.05,0,0-1.78,2.72-.21,5C33.56,21.16,25.94,18.64,34,11.12Z"/><path class="cls-1" d="M53.94,36.31S46.31,38,47.35,32c0,0,1.28,2.19,3.47,1.91,0,0-1-2.35-3.13-2.36C47.69,31.59,52.69,27.83,53.94,36.31Z"/><path class="cls-1" d="M52.45,41.82S47.34,41.62,49,38a2.52,2.52,0,0,0,1.87,1.79,2.47,2.47,0,0,0-1.57-2S53.09,36.25,52.45,41.82Z"/><path class="cls-1" d="M58.17,29.24S54.68,33,53,29.35a2.54,2.54,0,0,0,2.58-.24A2.49,2.49,0,0,0,53.05,29S54.38,25.11,58.17,29.24Z"/><path class="cls-1" d="M59.14,22.14s-2.28,4.58-4.89,1.58a2.51,2.51,0,0,0,2.4-1,2.48,2.48,0,0,0-2.49.61S54.32,19.27,59.14,22.14Z"/><path class="cls-1" d="M54,11.44s-.49,5.09-4,3.22a2.5,2.5,0,0,0,1.89-1.76,2.47,2.47,0,0,0-2.1,1.46S48.44,10.49,54,11.44Z"/><path class="cls-1" d="M47.89,8.41S50,13.07,46,13.18a2.51,2.51,0,0,0,.77-2.47A2.48,2.48,0,0,0,45.68,13S42.62,10.31,47.89,8.41Z"/><path class="cls-1" d="M36.28,4.41s4.06,3.11.61,5.1A2.51,2.51,0,0,0,36.4,7a2.49,2.49,0,0,0,.12,2.56S32.54,8.59,36.28,4.41Z"/><path class="cls-1" d="M30.23,5.22s4.69,2,1.84,4.79A2.51,2.51,0,0,0,31,7.67a2.49,2.49,0,0,0,.74,2.45S27.62,10.19,30.23,5.22Z"/><path class="cls-1" d="M20,7.69s4.75,1.9,2,4.74a2.51,2.51,0,0,0-1.15-2.31,2.48,2.48,0,0,0,.8,2.43S17.55,12.72,20,7.69Z"/><path class="cls-1" d="M14.34,13.23s4.85-1.61,4.56,2.36a2.53,2.53,0,0,0-2.38-1,2.48,2.48,0,0,0,2.18,1.34S15.68,18.67,14.34,13.23Z"/><path class="cls-1" d="M9.17,25.79S11,21,13.9,23.8A2.5,2.5,0,0,0,11.6,25,2.47,2.47,0,0,0,14,24.15S14.21,28.23,9.17,25.79Z"/><path class="cls-1" d="M10.4,33.38s.06-5.11,3.71-3.54a2.51,2.51,0,0,0-1.73,1.91,2.48,2.48,0,0,0,2-1.63S16,33.87,10.4,33.38Z"/><path class="cls-1" d="M18,43.7s-2.14-4.64,1.84-4.79a2.5,2.5,0,0,0-.75,2.47,2.48,2.48,0,0,0,1.08-2.32S23.23,41.75,18,43.7Z"/><path class="cls-1" d="M55.6,16.76s-1.7,7.63-6.68,4.12c0,0,2.52-.21,3.21-2.31,0,0-2.54-.15-3.48,1.81C48.65,20.38,47.4,14.25,55.6,16.76Z"/><path class="cls-1" d="M41.46,7s4.2,6.6-1.8,7.65c0,0,1.63-1.94.63-3.91,0,0-1.89,1.69-1.17,3.74C39.12,14.45,33.89,11,41.46,7Z"/><path class="cls-1" d="M25.27,7.48s7.43,2.44,3.46,7c0,0,0-2.53-2-3.42,0,0-.4,2.51,1.46,3.63C28.2,14.74,22,15.4,25.27,7.48Z"/><path class="cls-1" d="M12.49,18s7.29-2.82,7.14,3.27c0,0-1.58-2-3.71-1.38,0,0,1.29,2.19,3.44,1.88C19.36,21.79,15,26.24,12.49,18Z"/><path class="cls-1" d="M13.28,38.35s.84-7.78,6.18-4.85c0,0-2.49.49-2.93,2.66,0,0,2.53-.14,3.25-2.19C19.78,34,21.71,39.92,13.28,38.35Z"/><path class="cls-1" d="M13.16,27.37s6.55-7.6,10.06-.62c0,0-3-1.28-5,.68,0,0,2.77,1.69,5,.05C23.21,27.48,20.92,35.17,13.16,27.37Z"/><path class="cls-1" d="M21.66,39.62s-.46-10,6.89-7.36c0,0-3.06,1.12-3.2,4,0,0,3.18-.67,3.69-3.41C29,32.8,32.66,40,21.66,39.62Z"/><path class="cls-1" d="M34.2,32.94s-3.69-7.46-10-7.35a12,12,0,0,1,8.36,9.52c.35,1.7-.66,7.6-1.23,10.55-.5,2.57-2.08,7.35-4.9,8.54A32.15,32.15,0,0,1,11.75,0,34.2,34.2,0,0,0,34.2,60H35A34.19,34.19,0,0,0,56.64,0a32,32,0,0,1,9.7,23c0,14.82-10.77,27.48-24.4,31.2-2.85-1.19-4.43-6-4.93-8.54A79.87,79.87,0,0,1,35.79,35.1c1.61-7.92,7.75-9.51,7.75-9.51-5.77-.11-9.34,7.35-9.34,7.35"/><path class="cls-1" d="M34.2,28.24a2.66,2.66,0,1,0-2.65-2.65A2.65,2.65,0,0,0,34.2,28.24Z"/></g></g></svg>