<svg xmlns="http://www.w3.org/2000/svg" viewBox="0 0 400 400"><defs><style>.cls-1{fill:none;}.cls-2{fill:#fff;}</style></defs><g id="Capa_2" data-name="Capa 2"><g id="Capa_1-2" data-name="Capa 1"><rect class="cls-1" width="400" height="400"/><path class="cls-2" d="M267.15,251s-53.8,2.42-39.5-36.18c0,0,6,16,21.19,16.79,0,0-3.61-16.74-18.31-19.4C230.53,212.17,269,193.16,267.15,251Z"/><path class="cls-2" d="M304.76,179.22s-32.53,42-53.67,6.55c0,0,16.43,5.76,26.73-5.19,0,0-15.43-8-26.93,1.36C250.89,181.94,260.58,140.84,304.76,179.22Z"/><path class="cls-2" d="M268.73,123.38s-3.14,52.64-40.87,34.69c0,0,16.92-4.17,19.26-18.88,0,0-17.37,1.76-21.6,15.8C225.52,155,210.21,115.57,268.73,123.38Z"/><path class="cls-2" d="M127.83,120s53.75,3.08,35.42,40c0,0-4.25-16.57-19.28-18.86,0,0,1.81,17,16.15,21.16C160.12,162.35,119.85,177.33,127.83,120Z"/><path class="cls-2" d="M198.79,100.76s39.73,35.58,1.72,52.94c0,0,7.36-15.49-2.82-26.55,0,0-9.56,14.32-1.09,26.39C196.6,153.54,155.7,140.31,198.79,100.76Z"/><path class="cls-2" d="M306,233.17s-40.93,9.1-35.38-22.44c0,0,6.85,11.5,18.61,10,0,0-5.11-12.36-16.77-12.42C272.42,208.34,299.25,188.58,306,233.17Z"/><path class="cls-2" d="M298,262.1s-27.41-1-18.48-20c0,0,2.35,8.4,10,9.41,0,0-1.11-8.65-8.46-10.61C281,240.89,301.39,232.84,298,262.1Z"/><path class="cls-2" d="M328.65,196s-18.72,19.64-27.55.58c0,0,8,3.76,13.83-1.26,0,0-7.4-4.84-13.72-.69C301.21,194.63,308.31,174.3,328.65,196Z"/><path class="cls-2" d="M333.85,158.71s-12.2,24.06-26.23,8.28c0,0,8.78,1.35,12.88-5.09,0,0-8.51-2.57-13.35,3.19C307.15,165.09,308,143.62,333.85,158.71Z"/><path class="cls-2" d="M306.11,102.48s-2.6,26.74-21.47,16.91c0,0,8.7-1.81,10.17-9.26,0,0-8.88.58-11.31,7.66C283.5,117.79,276.46,97.44,306.11,102.48Z"/><path class="cls-2" d="M273.5,86.51s11.26,24.5-10.1,25.11c0,0,6.64-5.79,4.15-13,0,0-7.42,4.82-5.95,12.13C261.6,110.77,245.19,96.51,273.5,86.51Z"/><path class="cls-2" d="M211.19,65.53S233,81.86,214.46,92.32c0,0,3-8.18-2.63-13.35,0,0-4.2,7.69.64,13.45C212.47,92.42,191.11,87.48,211.19,65.53Z"/><path class="cls-2" d="M178.68,69.77s25.21,10.6,9.89,25.18c0,0,.89-8.66-5.9-12.3,0,0-2.15,8.45,4,12.87C186.66,95.52,164.71,95.86,178.68,69.77Z"/><path class="cls-2" d="M123.9,82.75s25.48,10,10.54,24.93c0,0,.67-8.68-6.22-12.16,0,0-1.92,8.51,4.32,12.77C132.54,108.29,110.62,109.18,123.9,82.75Z"/><path class="cls-2" d="M93.41,111.85s26-8.43,24.45,12.43c0,0-5.2-7.06-12.74-5.38,0,0,4.11,7.72,11.7,7C116.82,126,100.62,140.45,93.41,111.85Z"/><path class="cls-2" d="M65.66,177.86s10-25,25.39-10.46c0,0-8.86-.61-12.37,6.15,0,0,8.7,1.84,13-4.3C91.69,169.25,92.73,190.71,65.66,177.86Z"/><path class="cls-2" d="M72.26,217.76s.3-26.85,19.94-18.61c0,0-8.51,2.52-9.33,10.06,0,0,8.79-1.31,10.6-8.56C93.47,200.65,102.23,220.35,72.26,217.76Z"/><path class="cls-2" d="M112.89,272s-11.48-24.39,9.87-25.19c0,0-6.59,5.85-4,13,0,0,7.37-4.88,5.83-12.18C124.56,247.64,141.11,261.76,112.89,272Z"/><path class="cls-2" d="M314.88,130.4s-9.16,40.11-35.88,21.68c0,0,13.55-1.13,17.23-12.17,0,0-13.59-.77-18.64,9.52C277.59,149.43,270.86,117.21,314.88,130.4Z"/><path class="cls-2" d="M239,79s22.54,34.67-9.66,40.19c0,0,8.75-10.2,3.37-20.54,0,0-10.16,8.88-6.29,19.65C226.4,118.27,198.36,100.19,239,79Z"/><path class="cls-2" d="M152.08,81.63S192,94.45,170.63,118.71c0,0,.17-13.32-10.69-18,0,0-2.1,13.17,7.86,19.09C167.8,119.82,134.41,123.26,152.08,81.63Z"/><path class="cls-2" d="M83.46,137.06s39.15-14.82,38.34,17.17c0,0-8.49-10.4-19.91-7.27,0,0,6.9,11.5,18.44,9.9C120.33,156.86,96.71,180.23,83.46,137.06Z"/><path class="cls-2" d="M87.72,243.87s4.49-40.87,33.16-25.5c0,0-13.34,2.62-15.73,14,0,0,13.6-.73,17.44-11.51C122.59,220.85,133,252.12,87.72,243.87Z"/><path class="cls-2" d="M87.08,186.18s35.14-40,54-3.26c0,0-16-6.74-27,3.55,0,0,14.9,8.93,27,.29C141,186.76,128.73,227.18,87.08,186.18Z"/><path class="cls-2" d="M132.69,250.57s-2.46-52.67,37-38.67c0,0-16.39,5.88-17.16,20.75,0,0,17.1-3.53,19.82-17.93C172.32,214.72,191.72,252.38,132.69,250.57Z"/><path class="cls-2" d="M200,215.44s-19.77-39.21-53.49-38.63c0,0,36,8.22,44.85,50,1.89,8.94-3.54,40-6.61,55.45-2.68,13.51-11.15,38.65-26.28,44.87-75.22-18.2-131-84.68-131-164,0-47.39,20-90.19,52.05-120.87-38.65,33-63.08,81.48-63.08,135.6,0,99.27,82.18,179.74,183.56,179.74,1.23,0,2.45,0,3.67-.05l.2.05.14-.05c99.52-2.09,179.55-81.73,179.55-179.69,0-54.12-24.44-102.65-63.09-135.6,32.1,30.67,52.06,73.48,52.06,120.87,0,77.88-57.79,144.41-131,164-15.29-6.22-23.76-31.58-26.43-44.87-3.08-15.47-6.82-46.78-6.59-55.48,8.65-41.62,41.64-50,41.64-50-31-.58-50.16,38.63-50.16,38.63"/><path class="cls-2" d="M200,190.75a13.95,13.95,0,1,0-14.24-13.95A14.1,14.1,0,0,0,200,190.75Z"/></g></g></svg>