<svg xmlns="http://www.w3.org/2000/svg" viewBox="0 0 263 447"><defs><style>.cls-1{fill:#ffa8a7;}.cls-2{fill:#37474f;}.cls-3{fill:#263238;}.cls-4{fill:#455a64;}.cls-5{fill:#f28f8f;}.cls-6{fill:#b16668;}.cls-7{fill:#27debf;}.cls-8{opacity:0.6;}.cls-9{fill:#fff;}.cls-10{opacity:0.15;}.cls-11{opacity:0.3;}.cls-12{fill:#fafafa;}.cls-13{fill:none;}</style></defs><g id="Capa_2" data-name="Capa 2"><g id="_401_Error" data-name="401 Error"><g id="Character"><g id="Character-2" data-name="Character"><g id="Arm"><path class="cls-1" d="M163.34,170c-4.54,10.15-8.34,20.93-11.69,25.33-6.83,4.18-24.1,12.76-30.64,14.38a5,5,0,0,1-3.42-.41c-2.8-1.41-4.85-1.46-7.71-2.09-2.23-.5-3.26-1.43-3.62-1s-.82,1.8.66,3.13a23.34,23.34,0,0,0,3.65,2.42,20.33,20.33,0,0,1-9,1.17c-5.91-.85-8.31,2.22-3.72,8,1.65,2.08,7.53,5,18.52,2.79A97.39,97.39,0,0,0,128,221c10.39-3.48,22-7,29-10a16.68,16.68,0,0,0,6.5-5.71c7.69-12.85,13.56-22.35,17.89-32l-.65-20.61C169.9,152.19,167.14,161.48,163.34,170Z"/><path class="cls-2" d="M151.38,195s10.73-27.47,16.09-36.54c3.73-6.31,8.21-6.81,15.92-6.85,5,8.2-1.41,22.2-1.41,22.2s-9,18.44-15.48,29.32c-4.23,7.1-5.56,7.58-11.58,10s-18.76,7.25-18.76,7.25c.59-4.86-1.39-11.92-4.73-14.94Z"/></g><path class="cls-3" d="M199,395.54c.14,1.31.32,5,7,5.9s10.86-1.29,12.64-4.49,1.37-5.83,1.65-8.79,2.74-4.56,3.45-6.09c1-2.25-.48-5.75-.48-5.75Z"/><path class="cls-3" d="M150.33,374.06a4,4,0,0,0,.44,3.23,13.94,13.94,0,0,0,10.68,2.86,25.65,25.65,0,0,0,11.31-4.44,14.86,14.86,0,0,1,8.72-2.51c3.21-.11,5.56-.82,5.8-1.66.43-1.48.42-2.42-.28-2.37Z"/><path class="cls-1" d="M221.68,371.16c-.84,6.07-12.63,5.58-11.67.73l-2.1-14.76,13.34.42Z"/><path class="cls-2" d="M199.46,392.51a39.28,39.28,0,0,1,3.06-3.66,33,33,0,0,0,6.94-17.68c0-.36.07-1.06.42-1.27s.72.09,1.1.25h0v0a6.84,6.84,0,0,0,2.06.54c2.36.27,5-.3,5.57-.22s.6,1.49.56,3c.84-.53,1.11-1.58,1.87-2.2.4-.33.58-.34.58-.89,0-.35,0-.67,0-1,.61-.18,1.12,2.15,1.62,3.92.57,2.06,1.29,4.37.48,6.46a17.36,17.36,0,0,1-1.88,3.22,13.47,13.47,0,0,0-2.42,5.9c-.09.93,0,1.88-.15,2.81a8.23,8.23,0,0,1-5.82,6.77c-4.06,1.27-10.16,1.07-13.75-1.77C198.44,395.7,198.87,393.6,199.46,392.51Z"/><path class="cls-1" d="M184.28,359.11c-3.23,2.51-7.12,4-11.1,2.17l-.93-24.83,13.38,2.4Z"/><path class="cls-2" d="M153,369.78c.89-.29,1.77-.6,2.63-.95a47.92,47.92,0,0,0,7-3.48c1-.59,2-1.22,2.89-1.88s1.91-1.45,2.84-2.22a9.82,9.82,0,0,0,1.36-1.45,14.86,14.86,0,0,0,2-3.24,1.16,1.16,0,0,1,.5-.66,1,1,0,0,1,.94.19,4.49,4.49,0,0,0,.73.5l.79.32a8.82,8.82,0,0,0,2.62.64c3.39.31,3.5-.37,3.65.72a9,9,0,0,1,0,1.22c1.79-.29,3.2-.87,3.27-1.55l.22-2.16c1.78-.16,1.9,3,2.48,6.6.48,2.9,1.17,5,.38,7.13-2.7,2.35-7.45,1.78-10.15,2.22-3.83.64-5.62,3.47-10.94,5.31-8.58,3-14-.45-15.6-2C149.58,373.19,149.37,370.94,153,369.78Z"/><path class="cls-3" d="M217.91,214.08c.68,10.52,1.92,26,2.35,38.14.8,22.88.49,54.46.49,54.46a79.05,79.05,0,0,1,2.46,14.66c.55,14.62.45,51.11.45,51.11s-6.06,6.1-15.13,1.31c0,0-8-49.69-10.27-64.1-2.15-13.74-6.33-46.73-6.33-46.73L190,295.5s2.22,12.54,1.43,23.32c-.49,6.69-4.31,39.75-4.31,39.75-3.49,3.27-13.64,1.49-15.86-1.11,0,0-3.56-53.45-3.95-60.5-.86-15.27-3.13-65.73-2-74.57S217.91,214.08,217.91,214.08Z"/><path d="M191.93,262.93l-2.66-17.6S182,243.94,176.62,240c0,0,2.08,4.7,10.16,8.06l2.62,16.39L190,295.5Z"/><path class="cls-4" d="M163.52,225.6c.74-23,.69-29.21,2.77-45.93s5.36-21.27,9.19-24.11c2.47-1.84,14.32-6.6,14.32-6.6l0,4.21c8.07-.84,17-5.89,17-5.89l3.66.75c8.29,4.23,19.87,8.15,21.29,10.31,0,0-3.65,17.68-6.52,25.86-3,8.55-5.64,28.9-5.64,28.9,4,17.87,4.08,24.19,5,37.91.74,11,.56,27.7.56,27.7s-12.37,5.75-33.21,5.06-29.16-4.72-29.16-4.72S162.8,247.74,163.52,225.6Z"/><path class="cls-2" d="M177.19,180.64s-3.54,9.89-4.88,35.36c-1.08,20.6-.75,53.72-.59,65.62.87.18,1.81.35,2.82.52C173.86,263.23,172.07,201.12,177.19,180.64Z"/><circle class="cls-2" cx="178.9" cy="202.02" r="1.85"/><circle class="cls-2" cx="189.13" cy="202.48" r="1.85"/><circle class="cls-2" cx="178.47" cy="214.56" r="1.85"/><path class="cls-2" d="M190.55,215a1.86,1.86,0,1,1-1.85-1.86A1.85,1.85,0,0,1,190.55,215Z"/><circle class="cls-2" cx="178.04" cy="227.1" r="1.85"/><path class="cls-2" d="M190.12,227.56a1.86,1.86,0,1,1-1.85-1.86A1.85,1.85,0,0,1,190.12,227.56Z"/><path class="cls-3" d="M180.74,168.1c1.58-3.78-1.6-13.93-5.6-20.82a70,70,0,0,1-6.92-16.22s9.53-1.44,19.82-3.85,32.39-6.15,30.74,0-11,16.83-18.88,22S180.74,168.1,180.74,168.1Z"/><path class="cls-3" d="M209.19,106.4s.24,0,.62.13a2.87,2.87,0,0,1,1.53-3.23,3.09,3.09,0,0,1,4,1.63l-4.34,2a6.08,6.08,0,0,1,3.3,2.82c1.19,2.44-.38,7.65-2,14.08a92,92,0,0,1-3.5,11.91c-.72,1.87-2,1.93-2,1.93v-6.42l-2.37-7.07a46.54,46.54,0,0,1-1.14-6.72c-.49-4.91.55-6.93.55-6.93Z"/><path class="cls-3" d="M185.6,100.89a10.82,10.82,0,1,1-10.85,10.78A10.82,10.82,0,0,1,185.6,100.89Z"/><path class="cls-1" d="M206,124.85c1.29,1.11,2.53-2,3.78-2.9,1.44-1.07,4.75-1.6,5.82,1.7,1.22,3.73-1.58,7.08-3.71,8.13a4.25,4.25,0,0,1-5.14-.55v16.05c-3.92,2.85-16.38,8.42-20.53,9.44a37.85,37.85,0,0,1,3.54-7.22l0-6.55a19.54,19.54,0,0,1-5.3.28c-3.5-.55-5.38-3.44-6.43-7.23-1.68-6.1-2-16.33.31-28.16,3.92-3,17.19-2.54,25.42,2.67C203.23,121,204.76,123.74,206,124.85Z"/><path class="cls-5" d="M189.83,143s7.82-1.55,10.56-3a9,9,0,0,0,3.79-3.72,12.37,12.37,0,0,1-2.16,4.4c-2,2.55-12.2,4.4-12.2,4.4Z"/><path class="cls-3" d="M173.05,118.74a3.17,3.17,0,0,0,.72,1.68,1.52,1.52,0,0,1,.28.6,29.77,29.77,0,0,0,1,4.52,5,5,0,0,0,4.78,3.3,6.56,6.56,0,0,0,1.65-.11l.13,0a5,5,0,0,0,1.35-.49.25.25,0,0,1,.08-.05l.12-.07.14-.11a.43.43,0,0,0,.13-.09,1,1,0,0,0,.16-.12l.14-.12.27-.26a6.22,6.22,0,0,0,1.1-1.69c.74-1.56.59-3.77,1.75-4l.14,0h.15c1.57.06,1.34,2.45,2.18,4.18a5.86,5.86,0,0,0,5.65,3.55h.44a2.07,2.07,0,0,0,.35,0,4.77,4.77,0,0,0,.81-.09l.26-.06a1,1,0,0,0,.25-.06l.15,0a4.73,4.73,0,0,0,.93-.42l.32-.2a3.89,3.89,0,0,0,.53-.46A4.83,4.83,0,0,0,200,126.5a28,28,0,0,0,1-4.44,1.67,1.67,0,0,1,.27-.65,3.12,3.12,0,0,0,.79-1.59,1.39,1.39,0,0,0-.92-1.44l-.83-.13c-2.67-.37-6.15-.59-8.25-.06-2.64.66-3.57,1.49-5,1.44s-2.23-.95-4.7-1.81c-2-.69-5.23-.72-7.72-.54l-.78,0C173.48,117.38,173,118,173.05,118.74Zm17.19,2a2.47,2.47,0,0,1,.76-.59l.14-.07.07,0,.38-.17.34-.13a10.79,10.79,0,0,1,1.13-.33c.14,0,.29-.07.45-.09.37-.07.76-.13,1.15-.17h.27c2.52-.15,4.09.47,4.64,1s.27,2.88,0,4c0,0,0,.06,0,.09a.29.29,0,0,1,0,.09c0,.14-.07.31-.12.47s0,.2-.08.3h0c-.06.16-.12.33-.19.49a.87.87,0,0,1-.07.17.47.47,0,0,1-.05.1s0,.07-.05.11l-.07.14a5.57,5.57,0,0,1-.2.32,1.12,1.12,0,0,1-.1.16,4,4,0,0,1-3.56,1.61,4.92,4.92,0,0,1-3.7-1.5,5.3,5.3,0,0,1-1.18-2.41C189.89,123,189.74,121.42,190.24,120.71Zm-14.8-1.52a1.74,1.74,0,0,1,.63-.37s0,0,0,0l.27-.1.17,0,.14,0,.09,0h0l.14,0a5,5,0,0,1,.58-.09l.32,0h1a10.45,10.45,0,0,1,1.17.13c1.79.29,3.65,1.17,4.12,1.92s.34,2.27.08,3.59a6.22,6.22,0,0,1-.25.87.25.25,0,0,0,0,.07.42.42,0,0,1,0,.1s0,0,0,.06a.47.47,0,0,1,0,.1l-.1.21-.1.19,0,.06-.08.13-.07.11h0a4,4,0,0,1-3.78,1.64,4.48,4.48,0,0,1-1.89-.5c-1.77-.94-2.18-2.95-2.38-3.88C175.19,122,174.9,119.69,175.44,119.19Z"/><path class="cls-3" d="M201,118.42l11.58,2.72a4.26,4.26,0,0,0-3.42,1.43L201,121Z"/><path class="cls-2" d="M175.44,123.25c.2.93.61,2.94,2.38,3.88a4.48,4.48,0,0,0,1.89.5,4,4,0,0,0,3.78-1.64h0l.07-.11.08-.13,0-.06.1-.19.1-.21a.47.47,0,0,0,0-.1s0-.05,0-.06a.42.42,0,0,0,0-.1.25.25,0,0,1,0-.07,6.22,6.22,0,0,0,.25-.87c.26-1.32.4-2.85-.08-3.59s-2.33-1.63-4.12-1.92a10.45,10.45,0,0,0-1.17-.13h-1l-.32,0a5,5,0,0,0-.58.09l-.14,0h0l-.09,0-.14,0-.17,0-.27.1s0,0,0,0a1.74,1.74,0,0,0-.63.37C174.9,119.69,175.19,122,175.44,123.25Z"/><path class="cls-2" d="M190.17,124.31a5.3,5.3,0,0,0,1.18,2.41,4.92,4.92,0,0,0,3.7,1.5,4,4,0,0,0,3.56-1.61,1.12,1.12,0,0,0,.1-.16,5.57,5.57,0,0,0,.2-.32L199,126s0-.07.05-.11a.47.47,0,0,0,.05-.1.87.87,0,0,0,.07-.17c.07-.16.13-.33.19-.49h0c0-.1,0-.2.08-.3s.09-.33.12-.47a.29.29,0,0,0,0-.09s0-.06,0-.09c.26-1.17.58-3.51,0-4s-2.12-1.15-4.64-1h-.27c-.39,0-.78.1-1.15.17-.16,0-.31.06-.45.09a10.79,10.79,0,0,0-1.13.33l-.34.13-.38.17-.07,0-.14.07a2.47,2.47,0,0,0-.76.59C189.74,121.42,189.89,123,190.17,124.31Z"/><path class="cls-3" d="M175.75,99.47c0-.13,0-.26.05-.39a1.23,1.23,0,0,1,.26-.68c.52-.55,1.58.83,1.95,1.15a13.69,13.69,0,0,0,1.13.88,7.67,7.67,0,0,1,1.05.62,11.34,11.34,0,0,1,0-3.94c.16-.86.4-2.86,1.47-3.08.63-.12,1.19.41,1.66.85,4.28,4,9.87,2.15,15,2.32,4.31.14,9.51,1.89,11.46,6.09.89,1.91,1,3.94-.71,5.26-1.14.86-2.25.82-2.89,2.19-.16.33-1.14,4.42-.56,4.37a4.47,4.47,0,0,1-4.8-3.28c-.11-.45-.35-1.26-.45-1.72a1,1,0,0,0-1.23-.74c-1.31.28-2.16.81-3.4,1.15a24.79,24.79,0,0,1-10.86.64,12.8,12.8,0,0,1-6.82-3.66A10.22,10.22,0,0,1,175.75,99.47Z"/><path class="cls-3" d="M192.58,116.31l3.79.58a2,2,0,0,0-1.65-2.23A1.86,1.86,0,0,0,192.58,116.31Z"/><path class="cls-3" d="M178.23,116.52l3.84-.42a1.86,1.86,0,0,0-2.06-1.73A2,2,0,0,0,178.23,116.52Z"/><path class="cls-5" d="M187.56,121.79l-.51,8.94-5-1.3,5-7.74A1.28,1.28,0,0,1,187.56,121.79Z"/><circle class="cls-6" cx="189.91" cy="134.05" r="1.49"/><path class="cls-2" d="M177.19,180.64c1.41-10,8.6-24.53,12.25-28.52,4.44-4.84,8.7-12.75,9-16.58,0,0,14.77,1.14,20.36-8.33A39.36,39.36,0,0,1,210.45,148s-14.61,5.33-20,10.36C183.08,165.37,177.19,180.64,177.19,180.64Z"/><path class="cls-1" d="M242.42,201.21C236.74,170,238.57,162.5,231,157.47a41,41,0,0,0-7.54-3.53c-2.76,3.33-6.44,11-2.28,22.29,0,0,4,17.62,6,26.57-2.44,7.82-6.32,17.18-10,22.22a4.75,4.75,0,0,1-3.14,1.87l-3.9,7a18,18,0,0,1-1.66,1.54,13.47,13.47,0,0,0,7.93,10.3c1.91-1.44,4.47-3,6.74-5.78A90.57,90.57,0,0,0,230,229.11c3.85-6.85,8.1-14,10.6-19.76C242.49,205.05,242.79,203.22,242.42,201.21Z"/><path class="cls-2" d="M208.21,224.35c0,7,3,18.09,13.52,20.92V249s-8-.77-12.31-6.63-5.37-11.41-5.37-18.05Z"/><path class="cls-1" d="M206.69,230.26c2.84-1.25,3.95-2.84,7.37-3.37l-3.9,7a15,15,0,0,1-4,.38,3.28,3.28,0,0,1-3.17-2.61C202.9,231.08,204.47,231.24,206.69,230.26Z"/><path class="cls-2" d="M221.16,152.89c6.57,1.57,11.34,3.7,13.37,5.32s4.05,10.55,5,16.23,4.05,27,4.16,29.43-12.82,26.74-12.82,26.74S226,224,218.6,221.83l7.31-19.35-7.71-27.84S213.89,165.61,221.16,152.89Z"/></g><g id="Exclamation_Marks" data-name="Exclamation Marks"><path class="cls-7" d="M161.93,92.79a1,1,0,0,1,.65-1.21l4.36-1.32a.94.94,0,0,1,.75.08.92.92,0,0,1,.47.57l1.06,3.5a1,1,0,0,1-.08.74.92.92,0,0,1-.57.47l-4.37,1.32a.92.92,0,0,1-.74-.08.89.89,0,0,1-.47-.57Zm-5.7-18.87a1,1,0,0,1,.08-.74.92.92,0,0,1,.57-.47l4.37-1.32a1,1,0,0,1,1.21.65L167,87a.92.92,0,0,1-.08.74,1,1,0,0,1-.57.47L162,89.5a1,1,0,0,1-.74-.08.92.92,0,0,1-.47-.57Z"/><path class="cls-7" d="M156.05,108.48a1,1,0,0,1-.07-1.38l3.07-3.37a.93.93,0,0,1,.67-.32.92.92,0,0,1,.7.25l2.71,2.46a.9.9,0,0,1,.31.67.93.93,0,0,1-.25.71l-3.06,3.37a.91.91,0,0,1-.68.31.94.94,0,0,1-.7-.24ZM141.46,95.23a.93.93,0,0,1-.31-.68.89.89,0,0,1,.24-.7l3.07-3.37a.91.91,0,0,1,.67-.32,1,1,0,0,1,.71.25l11.53,10.48a.92.92,0,0,1,.32.68,1,1,0,0,1-.25.7l-3.07,3.37a1,1,0,0,1-1.37.07Z"/><g class="cls-8"><path class="cls-9" d="M156.05,108.48a1,1,0,0,1-.07-1.38l3.07-3.37a.93.93,0,0,1,.67-.32.92.92,0,0,1,.7.25l2.71,2.46a.9.9,0,0,1,.31.67.93.93,0,0,1-.25.71l-3.06,3.37a.91.91,0,0,1-.68.31.94.94,0,0,1-.7-.24ZM141.46,95.23a.93.93,0,0,1-.31-.68.89.89,0,0,1,.24-.7l3.07-3.37a.91.91,0,0,1,.67-.32,1,1,0,0,1,.71.25l11.53,10.48a.92.92,0,0,1,.32.68,1,1,0,0,1-.25.7l-3.07,3.37a1,1,0,0,1-1.37.07Z"/></g></g></g><g id="ID_Card" data-name="ID Card"><path class="cls-7" d="M168.1,244.93l-65.49-37.78a2.67,2.67,0,0,0-2.74-.29c-.69.36-3,1.67-4.19,2.4a1,1,0,0,0-.18.1,1.32,1.32,0,0,0-.48.4,2.4,2.4,0,0,0-.35.47.25.25,0,0,1-.08.17c0,.15-.1.33-.14.51a4.2,4.2,0,0,0-.11,1V355.23a8.53,8.53,0,0,0,3.9,6.74l65.5,37.82a3.27,3.27,0,0,0,1.34.47,1.57,1.57,0,0,0,.86,0,1.26,1.26,0,0,0,.4-.14c.07,0,.1,0,.18-.07l4.33-2.51A2.67,2.67,0,0,0,172,395V251.72A8.66,8.66,0,0,0,168.1,244.93Zm-28.86,6.46-16.64-9.6a9.89,9.89,0,0,1-4.59-7.61c0-2.74,2.06-3.8,4.59-2.31l2,1.11,14.69,8.48a9.84,9.84,0,0,1,4.15,5.35,6.6,6.6,0,0,1,.43,2.27C143.82,251.82,141.76,252.83,139.24,251.39Z"/><path class="cls-10" d="M168.1,244.93l-65.49-37.78a2.67,2.67,0,0,0-2.74-.29c-.69.36-3,1.67-4.19,2.4a1,1,0,0,0-.18.1,1.32,1.32,0,0,0-.48.4,2.4,2.4,0,0,0-.35.47.25.25,0,0,1-.08.17c0,.15-.1.33-.14.51a4.2,4.2,0,0,0-.11,1V355.23a8.53,8.53,0,0,0,3.9,6.74l65.5,37.82a3.27,3.27,0,0,0,1.34.47,1.57,1.57,0,0,0,.86,0,1.26,1.26,0,0,0,.4-.14c.07,0,.1,0,.18-.07l4.33-2.51A2.67,2.67,0,0,0,172,395V251.72A8.66,8.66,0,0,0,168.1,244.93Zm-28.86,6.46-16.64-9.6a9.89,9.89,0,0,1-4.59-7.61c0-2.74,2.06-3.8,4.59-2.31l2,1.11,14.69,8.48a9.84,9.84,0,0,1,4.15,5.35,6.6,6.6,0,0,1,.43,2.27C143.82,251.82,141.76,252.83,139.24,251.39Z"/><path class="cls-7" d="M166.34,400.12c.07,0,.1,0,.18-.07l4.33-2.51A2.67,2.67,0,0,0,172,395V251.72a7.87,7.87,0,0,0-1.15-3.87l-4.37,2.51a7.85,7.85,0,0,1,1.16,3.86v143.3A2.64,2.64,0,0,1,166.34,400.12Z"/><path class="cls-11" d="M166.34,400.12c.07,0,.1,0,.18-.07l4.33-2.51A2.67,2.67,0,0,0,172,395V251.72a7.87,7.87,0,0,0-1.15-3.87l-4.37,2.51a7.85,7.85,0,0,1,1.16,3.86v143.3A2.64,2.64,0,0,1,166.34,400.12Z"/><path class="cls-7" d="M163.74,247.43,145.3,236.82l-16.6-9.59L98.24,209.65a2.86,2.86,0,0,0-2.56-.39,1,1,0,0,0-.18.1,1.32,1.32,0,0,0-.48.4,2.4,2.4,0,0,0-.35.47.25.25,0,0,1-.08.17c0,.15-.1.33-.14.51a4.2,4.2,0,0,0-.11,1V355.23a8.53,8.53,0,0,0,3.9,6.74l65.5,37.82a3.27,3.27,0,0,0,1.34.47,1.57,1.57,0,0,0,.86,0,1.26,1.26,0,0,0,.4-.14,2.63,2.63,0,0,0,1.3-2.6V254.22A8.77,8.77,0,0,0,163.74,247.43Zm-24.5,4-16.64-9.6a9.89,9.89,0,0,1-4.59-7.61c0-2.74,2.06-3.8,4.59-2.31l2,1.11,14.69,8.48a9.84,9.84,0,0,1,4.15,5.35,6.6,6.6,0,0,1,.43,2.27C143.82,251.82,141.76,252.83,139.24,251.39Z"/><path class="cls-12" d="M154.29,267.22l-46.6-26.9c-.84-.48-1.51-.09-1.51.87V313a3.32,3.32,0,0,0,1.51,2.62l46.6,26.86c.84.48,1.51.09,1.51-.88v-71.8A3.35,3.35,0,0,0,154.29,267.22Z"/><path class="cls-4" d="M140.73,277.13l-19.48-11.25c.67-2.3,2-7.88,3.86-9.54,1.66-1.53,3.69,3.59,5.88,4.85s4.22-1.51,5.88,1.94C138.68,266.89,140.06,274.05,140.73,277.13Z"/><path class="cls-4" d="M143,283.6,119,269.7a2.58,2.58,0,0,1-1.08-2.07v-.93c0-.8.48-1.16,1.08-.82L143,279.78a2.61,2.61,0,0,1,1.08,2.08v.92C144.11,283.58,143.63,284,143,283.6Z"/><path class="cls-4" d="M140.86,284.22l-9.33-5.39-.54-.31-9.87-5.69c-.6-.35-1.08,0-1.08.82V275a3.93,3.93,0,0,0,1.06,2.24c.58.75,2.68,3.65,4.42,4.8a3.94,3.94,0,0,0,2.07.69l2.41-.09a2,2,0,0,1,1,.31h0a4.08,4.08,0,0,1,1,.82l2.41,2.89a5.82,5.82,0,0,0,6.49,2c.57-.09,1.06-.21,1.06-1v-1.39A2.59,2.59,0,0,0,140.86,284.22Z"/><path class="cls-7" d="M137.47,283.8c.08,1.48-.69,2.33-1.77,1.91a4.56,4.56,0,0,1-2.33-3.47Z"/><path class="cls-7" d="M124.51,276.31a5.15,5.15,0,0,0,1.77,4c1.08.84,2.1.48,2.33-.79Z"/><path class="cls-4" d="M142.26,305.77l8.35-2.43c-1.89-3.41-9.58-13.74-9.58-13.74-1.27,10.24-6.09,10.06-10,7.78s-8.77-7.67-10-19.37c0,0-7.69,1.44-9.58,2.67l8.35,12.08s-4.29-.86-5.16,1-2.35,24.47-2.35,24.47L131,329.07l18.78,10.84s-1.49-24.33-2.35-27.18S142.26,305.77,142.26,305.77Z"/><path class="cls-4" d="M146.35,344.24l-30.72-17.73c-1.11-.64-2-.12-2,1.17v.8a4.47,4.47,0,0,0,2,3.5l30.72,17.73c1.11.65,2,.13,2-1.16v-.81A4.49,4.49,0,0,0,146.35,344.24Z"/><path class="cls-4" d="M153.84,363.86l-11-6.34c-.47-.27-.84-.08-.84.43a1.77,1.77,0,0,0,.84,1.39l11,6.35c.47.27.84.08.84-.43A1.8,1.8,0,0,0,153.84,363.86Z"/><path class="cls-4" d="M134.89,352.92l-26.75-15.44c-.47-.27-.85-.08-.85.42a1.8,1.8,0,0,0,.85,1.4l26.75,15.44c.46.27.84.08.84-.42A1.81,1.81,0,0,0,134.89,352.92Z"/><path class="cls-4" d="M153.84,367.51l-11-6.34c-.47-.27-.84-.08-.84.42a1.79,1.79,0,0,0,.84,1.4l11,6.35c.47.27.84.08.84-.43A1.8,1.8,0,0,0,153.84,367.51Z"/><path class="cls-4" d="M134.89,356.57l-26.75-15.45c-.47-.26-.85-.07-.85.43a1.81,1.81,0,0,0,.85,1.4l26.75,15.44c.46.27.84.08.84-.42A1.81,1.81,0,0,0,134.89,356.57Z"/><polygon class="cls-4" points="149.95 372.99 149.95 384.41 146.65 382.51 146.65 371.09 149.95 372.99"/><polygon class="cls-4" points="140.06 367.28 140.06 378.7 136.76 376.8 136.76 365.38 140.06 367.28"/><polygon class="cls-4" points="126.86 359.66 126.86 371.08 123.57 369.18 123.57 357.76 126.86 359.66"/><polygon class="cls-4" points="115.33 353 115.33 364.42 112.03 362.52 112.03 351.1 115.33 353"/><polygon class="cls-4" points="145 370.13 145 381.56 143.35 380.6 143.35 369.18 145 370.13"/><polygon class="cls-4" points="121.92 356.81 121.92 368.23 120.27 367.28 120.27 355.86 121.92 356.81"/><polygon class="cls-4" points="131.81 362.52 131.81 373.94 130.17 372.99 130.17 361.57 131.81 362.52"/><polygon class="cls-4" points="141.71 368.23 141.71 379.65 140.88 379.18 140.88 367.75 141.71 368.23"/><polygon class="cls-4" points="129.04 360.92 129.04 372.34 128.22 371.87 128.22 360.44 129.04 360.92"/><polygon class="cls-4" points="134.29 363.95 134.28 375.37 133.46 374.89 133.46 363.47 134.29 363.95"/><polygon class="cls-4" points="117.8 354.43 117.8 365.85 116.98 365.38 116.98 353.95 117.8 354.43"/><polygon class="cls-4" points="135.94 364.89 135.93 376.31 135.11 375.83 135.11 364.41 135.94 364.89"/><polygon class="cls-4" points="119.45 355.39 119.45 366.81 118.63 366.33 118.63 354.91 119.45 355.39"/><path class="cls-11" d="M144.37,351.79l-26.76-15.44c-.46-.27-.84-.08-.84.42a1.81,1.81,0,0,0,.84,1.4l26.75,15.45c.47.26.85.07.85-.43A1.83,1.83,0,0,0,144.37,351.79Z"/><path class="cls-7" d="M143.73,250c-.42,2-2.28,2.66-4.49,1.39l-16.64-9.6a9.89,9.89,0,0,1-4.59-7.61c0-2.34,1.48-3.45,3.48-2.81a4.45,4.45,0,0,0-.09.93,9.9,9.9,0,0,0,4.59,7.62l16.63,9.59A5.31,5.31,0,0,0,143.73,250Z"/><path class="cls-10" d="M143.73,250c-.42,2-2.28,2.66-4.49,1.39l-16.64-9.6a9.89,9.89,0,0,1-4.59-7.61c0-2.34,1.48-3.45,3.48-2.81a4.45,4.45,0,0,0-.09.93,9.9,9.9,0,0,0,4.59,7.62l16.63,9.59A5.31,5.31,0,0,0,143.73,250Z"/></g><g id="Text"><path class="cls-7" d="M38.41,143a.74.74,0,0,1-1-.07,1.66,1.66,0,0,1-.41-1.27v-8.11l-16.28,9.39a.74.74,0,0,1-1-.07,1.67,1.67,0,0,1-.42-1.27v-8.43a10.45,10.45,0,0,1,.68-3.81L35.47,90.42a7.24,7.24,0,0,1,.85-1.64,3.66,3.66,0,0,1,1.06-.89l7.8-4.51a.76.76,0,0,1,1,.07,1.7,1.7,0,0,1,.42,1.28v30.55L51,112.71a.75.75,0,0,1,1,.07,1.69,1.69,0,0,1,.42,1.27v8.44a4,4,0,0,1-.42,1.75,2.59,2.59,0,0,1-1,1.2L46.58,128v8.11a4,4,0,0,1-.42,1.75,2.57,2.57,0,0,1-1,1.21Zm-1.13-22.33V106l-7.55,19Z"/><path class="cls-7" d="M71.84,67.2q3.89-2.25,6.67-2.1a6.67,6.67,0,0,1,4.62,2,11.67,11.67,0,0,1,2.74,5.3A34.25,34.25,0,0,1,86.93,80q.1,3.36.11,7.1c0,2.5,0,4.85-.11,7.07a52.89,52.89,0,0,1-1.06,8.84,38.06,38.06,0,0,1-2.74,8.46,32.87,32.87,0,0,1-4.62,7.37,24.42,24.42,0,0,1-6.67,5.6q-3.87,2.23-6.66,2.09a6.67,6.67,0,0,1-4.63-2,11.81,11.81,0,0,1-2.74-5.3,35.46,35.46,0,0,1-1.06-7.62c-.06-2.14-.1-4.45-.1-6.94s0-4.9.1-7.22a55.06,55.06,0,0,1,1.06-8.85,39.31,39.31,0,0,1,2.74-8.46,33.5,33.5,0,0,1,4.63-7.37A24.49,24.49,0,0,1,71.84,67.2Zm5.53,32.13q.21-6.89,0-13.37A28.67,28.67,0,0,0,77,82.52a6.17,6.17,0,0,0-.91-2.38,2.26,2.26,0,0,0-1.65-1,4.5,4.5,0,0,0-2.59.77,9.1,9.1,0,0,0-2.58,2.21A11.29,11.29,0,0,0,67.61,85a16.36,16.36,0,0,0-.93,3.44,27.91,27.91,0,0,0-.37,3.87q-.25,6.75,0,13.36a22.65,22.65,0,0,0,.34,3.47,5.66,5.66,0,0,0,.93,2.36,2.35,2.35,0,0,0,1.68,1,4.45,4.45,0,0,0,2.58-.77,9,9,0,0,0,2.59-2.21,11.88,11.88,0,0,0,1.68-2.92,15.68,15.68,0,0,0,.93-3.44A29.35,29.35,0,0,0,77.37,99.33Z"/><path class="cls-7" d="M90.7,75a2.06,2.06,0,0,1-.25-1.44A4.43,4.43,0,0,1,91,71.8l11.11-19.54,1-1.7a4,4,0,0,1,1.37-1.42l6.31-3.64a.74.74,0,0,1,1,.07,1.71,1.71,0,0,1,.41,1.27V98.23a4.11,4.11,0,0,1-.41,1.75,2.63,2.63,0,0,1-1,1.21L104,105.1a.77.77,0,0,1-1-.08,1.7,1.7,0,0,1-.41-1.27V69L96.49,79.7a2.12,2.12,0,0,1-1,1,.73.73,0,0,1-.93-.3Z"/><path class="cls-9" d="M63.44,163.26a.24.24,0,0,1,.31,0,.5.5,0,0,1,.13.39v1.77a1.19,1.19,0,0,1-.13.54.87.87,0,0,1-.31.38l-7.07,4.08a.24.24,0,0,1-.31,0,.5.5,0,0,1-.13-.39V154a1.26,1.26,0,0,1,.13-.55.84.84,0,0,1,.31-.37l6.94-4a.24.24,0,0,1,.31,0,.52.52,0,0,1,.13.4v1.76a1.26,1.26,0,0,1-.13.55.84.84,0,0,1-.31.37l-5.2,3v3.94l4.85-2.8a.24.24,0,0,1,.31,0,.58.58,0,0,1,.13.4v1.76a1.38,1.38,0,0,1-.13.55.79.79,0,0,1-.31.37l-4.85,2.81v4.12Z"/><path class="cls-9" d="M70.47,144.94c1.34-.78,2.37-.89,3.06-.33s1,1.68,1,3.39a10.49,10.49,0,0,1-.54,3.4,8.37,8.37,0,0,1-1.59,2.81l2.23,4.85a.7.7,0,0,1,0,.25,1,1,0,0,1-.11.44.67.67,0,0,1-.25.31l-1.37.79c-.21.12-.37.13-.47,0a.77.77,0,0,1-.22-.31L70.2,156l-2.15,1.24V163a1.19,1.19,0,0,1-.13.54.8.8,0,0,1-.3.38l-1.31.75a.23.23,0,0,1-.3,0,.52.52,0,0,1-.13-.4v-16a1.23,1.23,0,0,1,.13-.55.77.77,0,0,1,.3-.37Zm-2.42,9.21,2.34-1.35a4.42,4.42,0,0,0,1.47-1.34,4,4,0,0,0,.55-2.21c0-.92-.19-1.44-.55-1.54a2,2,0,0,0-1.47.37l-2.34,1.35Z"/><path class="cls-9" d="M81.27,138.7c1.35-.78,2.37-.89,3.07-.33s1,1.69,1,3.39a10.49,10.49,0,0,1-.54,3.4A8.67,8.67,0,0,1,83.26,148l2.22,4.85a.69.69,0,0,1,0,.24,1.06,1.06,0,0,1-.11.45.64.64,0,0,1-.25.3l-1.37.79c-.21.13-.37.14-.47,0a.77.77,0,0,1-.22-.31L81,149.78,78.85,151v5.78a1.4,1.4,0,0,1-.12.55.84.84,0,0,1-.31.37l-1.31.75a.22.22,0,0,1-.3,0,.5.5,0,0,1-.13-.39V142a1.19,1.19,0,0,1,.13-.54.75.75,0,0,1,.3-.38Zm-2.42,9.21,2.34-1.35a4.42,4.42,0,0,0,1.47-1.34,3.91,3.91,0,0,0,.55-2.2c0-.93-.19-1.44-.55-1.55a2,2,0,0,0-1.47.38l-2.34,1.35Z"/><path class="cls-9" d="M87.09,141.82a15.76,15.76,0,0,1,.35-2.82,11.87,11.87,0,0,1,.88-2.64,10,10,0,0,1,1.45-2.28,7.81,7.81,0,0,1,2.06-1.73,4.15,4.15,0,0,1,2-.66,2.07,2.07,0,0,1,1.45.61,3.75,3.75,0,0,1,.89,1.62,9.91,9.91,0,0,1,.35,2.42c0,.31,0,.66,0,1v2.36c0,.38,0,.74,0,1.06a17,17,0,0,1-.34,2.82,12.79,12.79,0,0,1-.88,2.64,10.35,10.35,0,0,1-1.46,2.27,7.86,7.86,0,0,1-2.06,1.7,4,4,0,0,1-2.06.67,2,2,0,0,1-1.45-.58,3.62,3.62,0,0,1-.88-1.63,10.13,10.13,0,0,1-.35-2.42c0-.31,0-.65,0-1s0-.77,0-1.17,0-.8,0-1.19S87.08,142.14,87.09,141.82Zm7.31-4.1a3.25,3.25,0,0,0-.75-2.33c-.46-.39-1.07-.37-1.82.07a4.64,4.64,0,0,0-1.81,2,7.58,7.58,0,0,0-.75,3.2c0,.64,0,1.34,0,2.11s0,1.46,0,2.08A3.1,3.1,0,0,0,90,147.2c.46.38,1.06.36,1.81-.08a4.65,4.65,0,0,0,1.82-2,7.84,7.84,0,0,0,.75-3.19c0-.64,0-1.35,0-2.12S94.42,138.34,94.4,137.72Z"/><path class="cls-9" d="M103.29,126c1.35-.78,2.37-.89,3.07-.33s1,1.68,1,3.39a10.49,10.49,0,0,1-.54,3.4,8.18,8.18,0,0,1-1.58,2.81l2.22,4.85a.7.7,0,0,1,0,.25,1.17,1.17,0,0,1-.1.44.74.74,0,0,1-.25.31l-1.38.79c-.21.12-.37.13-.47,0a.89.89,0,0,1-.22-.31L103,137.06l-2.14,1.24v5.79a1.34,1.34,0,0,1-.13.54.87.87,0,0,1-.31.38l-1.31.75a.23.23,0,0,1-.3,0,.52.52,0,0,1-.13-.4v-16a1.23,1.23,0,0,1,.13-.55.83.83,0,0,1,.3-.37Zm-2.41,9.21,2.33-1.35a4.24,4.24,0,0,0,1.47-1.34,3.89,3.89,0,0,0,.55-2.21c0-.92-.18-1.44-.55-1.54a2.06,2.06,0,0,0-1.47.37l-2.33,1.35Z"/></g><rect class="cls-13" width="263" height="447"/></g></g></svg>