<svg xmlns="http://www.w3.org/2000/svg" viewBox="0 0 784.4 784.4"><defs><style>.cls-1{fill:#37474f;}.cls-2{fill:#263238;}.cls-3{fill:#455a64;}.cls-4{opacity:0.15;}.cls-10,.cls-25,.cls-5{fill:none;}.cls-10,.cls-5{stroke:#37474f;stroke-linecap:round;stroke-linejoin:round;}.cls-5{stroke-width:1.2px;}.cls-6{fill:#27debf;}.cls-14,.cls-15,.cls-16,.cls-18,.cls-19,.cls-23,.cls-24,.cls-7{fill:#fff;}.cls-7{opacity:0.7;}.cls-8{opacity:0.05;}.cls-9{opacity:0.1;}.cls-10{stroke-width:1.02px;}.cls-11{opacity:0.25;}.cls-12{opacity:0.35;}.cls-13,.cls-19,.cls-21{opacity:0.3;}.cls-14{opacity:0.5;}.cls-15{opacity:0.8;}.cls-16,.cls-17{opacity:0.2;}.cls-18{opacity:0.6;}.cls-20{fill:#e0e0e0;}.cls-22,.cls-23{opacity:0.4;}</style></defs><g id="Capa_2" data-name="Capa 2"><g id="Speech_Bubble" data-name="Speech Bubble"><g id="Gears"><path class="cls-1" d="M336.78,579.14v-7.29a1.64,1.64,0,0,0-1.53-1.62l-11.6-.74V553.18h0a1,1,0,0,0-.57-.89l-12.24-7.07a3.29,3.29,0,0,0-2.71-.12l-12.41,5.75a4.6,4.6,0,0,1-2.84.17,72.69,72.69,0,0,0-9.63-2.29,2.35,2.35,0,0,1-1.79-1.75l-1.56-8.17a1.91,1.91,0,0,0-1.81-1.5h-18a1.93,1.93,0,0,0-1.81,1.51L256.72,547a2.38,2.38,0,0,1-1.8,1.75,72.69,72.69,0,0,0-9.63,2.29,4.6,4.6,0,0,1-2.84-.17L230,545.11a3.29,3.29,0,0,0-2.71.12l-12.24,7.07a1,1,0,0,0-.57.87v16.32l-11.62.74a1.65,1.65,0,0,0-1.53,1.62V581h0v6.38h0v9.1h0v0c0,.2.14.34.21.51a1.77,1.77,0,0,0,.24.58,1.62,1.62,0,0,0,.78.37c.1,0,.18.13.29.14h.21l11.4.73h0v9.4h0v7h0s0,0,0,0a.77.77,0,0,0,.09.32l0,0a1.22,1.22,0,0,0,.43.41l12.24,7.07h0a2.89,2.89,0,0,0,1.18.3h.32a3.09,3.09,0,0,0,.43,0v-.08a2.86,2.86,0,0,0,.75-.13l12.41-5.75a4.6,4.6,0,0,1,2.84-.17,72.47,72.47,0,0,0,9.64,2.29,2.36,2.36,0,0,1,1.79,1.74l1.55,8.18c0,.19.2.32.3.49v.19c.07.09.17.14.25.23a1.59,1.59,0,0,0,.24.2,1.7,1.7,0,0,0,1,.39h18a1.82,1.82,0,0,0,1.14-.42h0a1.84,1.84,0,0,0,.68-1.07l1.55-8.18a2.34,2.34,0,0,1,1.79-1.74,73.22,73.22,0,0,0,9.64-2.29,4.57,4.57,0,0,1,2.83.17l12.41,5.75a3,3,0,0,0,1.16.22v0a3.08,3.08,0,0,0,1.55-.31L323.07,616a1,1,0,0,0,.57-.83h0V598.81l11.61-.74a1.64,1.64,0,0,0,1.52-1.62l0-17A1.73,1.73,0,0,0,336.78,579.14Zm-44.63,7.63a23,23,0,0,1-2.39,1.57c-11.42,6.6-29.94,6.6-41.36,0a26.21,26.21,0,0,1-2.4-1.57q1.11-.78,2.4-1.53c11.42-6.6,29.94-6.6,41.36,0C290.63,585.74,291.42,586.25,292.15,586.77Z"/><path class="cls-2" d="M336.82,579.46l0,17a1.64,1.64,0,0,1-1.53,1.62l-11.6.73v16.37a1,1,0,0,1-.58.83l-12.24,7.06a3,3,0,0,1-1.55.33v0a2.89,2.89,0,0,1-1.16-.22l-12.41-5.75a3.66,3.66,0,0,0-1.16-.28h0a4.5,4.5,0,0,0-1.67.12,73.22,73.22,0,0,1-9.64,2.29,2.26,2.26,0,0,0-.76.31V620a2.22,2.22,0,0,0-1,1.34l-1.55,8.18a1.93,1.93,0,0,1-.67,1.07h0a1.87,1.87,0,0,1-1.15.42h-18l-.33,0a2,2,0,0,1-1.18-.78V630c-.1-.17-.26-.3-.3-.49l-1.55-8.18a2.16,2.16,0,0,0-.73-1.17v0a2.23,2.23,0,0,0-1.07-.54,73.07,73.07,0,0,1-9.63-2.29,4.53,4.53,0,0,0-1.89-.09v.05a4.29,4.29,0,0,0-1,.21L230,623.19a2.41,2.41,0,0,1-.75.12v.09h0a3.25,3.25,0,0,1-1.93-.33h0L215.09,616a1.3,1.3,0,0,1-.46-.43.87.87,0,0,1-.11-.37V598.81l-2.12-.14-9.28-.59h-.21a1.66,1.66,0,0,1-1.53-1.6V581a1.64,1.64,0,0,0,1.53,1.62l16.31,1a3.07,3.07,0,0,1,2.21,1.47,24.31,24.31,0,0,0,3.46,4.81,1.29,1.29,0,0,1-.18,2l-9.7,7a.92.92,0,0,0,.08,1.67l12.24,7.07a3.29,3.29,0,0,0,2.71.11l12.41-5.75a4.53,4.53,0,0,1,2.84-.16,74.3,74.3,0,0,0,9.63,2.29,2.34,2.34,0,0,1,1.8,1.74l1.55,8.17a1.93,1.93,0,0,0,1.81,1.51h18A1.93,1.93,0,0,0,279.9,614l1.55-8.17a2.34,2.34,0,0,1,1.79-1.74,73.23,73.23,0,0,0,9.64-2.3,4.57,4.57,0,0,1,2.83.17l12.41,5.75a3.29,3.29,0,0,0,2.71-.11l12.24-7.07a.92.92,0,0,0,.09-1.66l-9.71-7a1.3,1.3,0,0,1-.17-2,24.79,24.79,0,0,0,3.46-4.8,3,3,0,0,1,2.2-1.47l16.31-1a1.66,1.66,0,0,0,1.53-1.63v-1.82A1.86,1.86,0,0,1,336.82,579.46Z"/><path class="cls-2" d="M323.65,553.18v16.31l-4.71-.3a3,3,0,0,1-2.2-1.46,24.84,24.84,0,0,0-3.46-4.81,1.29,1.29,0,0,1,.17-2l9.71-7a1,1,0,0,0,.48-.76Z"/><path class="cls-2" d="M224.89,562.92a24.31,24.31,0,0,0-3.46,4.81,3,3,0,0,1-2.21,1.46l-4.69.3,0-16.34a1.07,1.07,0,0,0,.5.8l9.7,7A1.3,1.3,0,0,1,224.89,562.92Z"/><path class="cls-3" d="M227.33,545.23l-12.24,7.07A.91.91,0,0,0,215,554l9.7,7a1.31,1.31,0,0,1,.18,2,24.43,24.43,0,0,0-3.47,4.8,3,3,0,0,1-2.2,1.46l-16.31,1a1.65,1.65,0,0,0-1.53,1.62V581a1.65,1.65,0,0,0,1.53,1.63l16.31,1a3,3,0,0,1,2.2,1.46,24.49,24.49,0,0,0,3.47,4.81,1.3,1.3,0,0,1-.18,2l-9.7,7a.91.91,0,0,0,.08,1.65l12.24,7.07a3.29,3.29,0,0,0,2.71.12l12.41-5.75a4.53,4.53,0,0,1,2.84-.16,76,76,0,0,0,9.63,2.29,2.34,2.34,0,0,1,1.8,1.74l1.55,8.18a1.92,1.92,0,0,0,1.81,1.5h18a1.91,1.91,0,0,0,1.81-1.5l1.56-8.18a2.33,2.33,0,0,1,1.79-1.74,76,76,0,0,0,9.63-2.29,4.52,4.52,0,0,1,2.84.16l12.41,5.75a3.29,3.29,0,0,0,2.71-.12l12.24-7.07a.91.91,0,0,0,.08-1.65l-9.7-7a1.29,1.29,0,0,1-.18-2,24.49,24.49,0,0,0,3.47-4.81,3,3,0,0,1,2.2-1.46l16.32-1a1.65,1.65,0,0,0,1.52-1.63v-9.1a1.64,1.64,0,0,0-1.53-1.62l-16.31-1a3,3,0,0,1-2.2-1.46,24.49,24.49,0,0,0-3.47-4.81,1.3,1.3,0,0,1,.18-2l9.7-7a.91.91,0,0,0-.08-1.65l-12.24-7.07a3.29,3.29,0,0,0-2.71-.12l-12.41,5.75a4.6,4.6,0,0,1-2.84.17,72.69,72.69,0,0,0-9.63-2.29,2.35,2.35,0,0,1-1.79-1.75l-1.56-8.17a1.91,1.91,0,0,0-1.81-1.5h-18a1.93,1.93,0,0,0-1.81,1.51L256.72,547a2.38,2.38,0,0,1-1.8,1.75,72.69,72.69,0,0,0-9.63,2.29,4.6,4.6,0,0,1-2.84-.17L230,545.11A3.29,3.29,0,0,0,227.33,545.23Zm62.43,19.23c11.42,6.59,11.42,17.29,0,23.88s-29.94,6.6-41.36,0-11.42-17.29,0-23.88S278.34,557.87,289.76,564.46Z"/><path class="cls-1" d="M214.52,599.66a1,1,0,0,1,.49-.82l4.88-3.51V583.77a2.36,2.36,0,0,0-.67-.17l-16.31-1a1.64,1.64,0,0,1-1.53-1.62v15.52a1.66,1.66,0,0,0,1.53,1.6h.21l9.28.59,2.12.14Z"/><path class="cls-1" d="M243.38,601.7a3.51,3.51,0,0,0-.93.24L230,607.69a3.07,3.07,0,0,1-1.59.2v15.5a3.85,3.85,0,0,0,.83,0h0v-.09a2.41,2.41,0,0,0,.75-.12l12.41-5.75a4.23,4.23,0,0,1,.93-.21Z"/><path class="cls-1" d="M258.5,614.57a1.77,1.77,0,0,1-.23-.59l-1.55-8.17a1.76,1.76,0,0,0-.25-.62V620.7a1.74,1.74,0,0,1,.25.6l1.55,8.18a1,1,0,0,0,.23.39Z"/><path class="cls-4" d="M281.69,605.19a1.82,1.82,0,0,0-.24.62L279.9,614a1.79,1.79,0,0,1-.24.59v15.49a1.87,1.87,0,0,0,.24-.58l1.55-8.18a1.59,1.59,0,0,1,.24-.55Z"/><path class="cls-4" d="M309.71,607.89a3.07,3.07,0,0,1-1.59-.2l-12.41-5.75a3.51,3.51,0,0,0-.93-.24v15.5a3.51,3.51,0,0,1,.93.24l12.41,5.75a2.89,2.89,0,0,0,1.16.22v0a3,3,0,0,0,.43,0Z"/><path class="cls-4" d="M335.25,582.58l-16.31,1a2.36,2.36,0,0,0-.67.17v11.56l4.89,3.52a1,1,0,0,1,.48.82c0,.31,0-.87,0-.87l11.6-.73a1.64,1.64,0,0,0,1.53-1.62l0-17a1.86,1.86,0,0,0,0-.33V581A1.66,1.66,0,0,1,335.25,582.58Z"/><path class="cls-1" d="M90.38,525.5c0,.7,0,13.51,0,13.87a.64.64,0,0,0,.12.35L96,547.31a2.18,2.18,0,0,0,2,.59l12.57-2.12a3.45,3.45,0,0,1,2.25.39c1,.68,2,1.33,3,1.94,0,0,0,10.2,0,10.42a.87.87,0,0,0,.7.75l13.68,3.27a2.61,2.61,0,0,0,2.2-.81l5.64-5.93a3.4,3.4,0,0,1,2.31-1,70,70,0,0,0,8.57,0,2.91,2.91,0,0,1,2.07.64l6.29,6.62a2.49,2.49,0,0,0,2.14.4l13.15-3.14c.65-.16,1.06-.57,1-1V548.09c.9-.53,1.76-1.07,2.57-1.63a4,4,0,0,1,2.48-.71l13,2.18a2.39,2.39,0,0,0,2.05-1l5-6.91a1.47,1.47,0,0,0,.28-.81c0-.23,0-4.31,0-10a.75.75,0,0,0,.1-.31c0-.12,0-18.59,0-19.74v0a.6.6,0,0,0-.11-.34l-5.46-7.6a2.2,2.2,0,0,0-2-.58l-12.56,2.11a3.56,3.56,0,0,1-2.26-.38,32.93,32.93,0,0,0-3-1.95c0-4.76,0-9.65,0-10.22a.07.07,0,0,0,0-.05.9.9,0,0,0-.7-.9L159.15,486a2.59,2.59,0,0,0-2.2.81l-5.63,5.92a3.39,3.39,0,0,1-2.32,1,70,70,0,0,0-8.57,0,3,3,0,0,1-2.07-.64l-6.29-6.62a2.45,2.45,0,0,0-2.12-.4l-13.17,3.14c-.64.16-1,.55-1,1v0l0,10.31c-.9.52-1.77,1.07-2.57,1.63a4,4,0,0,1-2.48.7l-13-2.17a2.36,2.36,0,0,0-2,1l-5,6.91a1.32,1.32,0,0,0-.28.76v0c0,.61,0,10.3,0,15.89h0a.75.75,0,0,0-.09.3h0v0Zm71.23,1.71a29.45,29.45,0,0,1-7.72,2.95c-9.21,2.2-19.43.86-26.11-2.94a17,17,0,0,1-2.06-1.35c.58-.4,1.22-.82,1.91-1.21,9.4-5.43,24.63-5.43,34,0,.71.4,1.36.82,2,1.24A21.09,21.09,0,0,1,161.61,527.21Z"/><path class="cls-2" d="M170.53,498.88c1.05.48,2.06,1,3,1.54,0-4.76,0-9.65,0-10.22a1.42,1.42,0,0,1-.15.53l-3.28,6.49A1.2,1.2,0,0,0,170.53,498.88Z"/><path class="cls-4" d="M185.62,515.12a13.72,13.72,0,0,1,0,4.29,1.38,1.38,0,0,0,.87,1.51l11.84,3.74a.76.76,0,0,1,.55.75v3.85a.59.59,0,0,0,.1-.28c0-6.73,0-18,0-19v-.82c0,.36-.38.71-.95.88l-11.19,3.55A1.53,1.53,0,0,0,185.62,515.12Z"/><path class="cls-4" d="M178.2,531.85v13.9a2.56,2.56,0,0,1,.48,0l13,2.18a1.56,1.56,0,0,0,.67,0V534a1.65,1.65,0,0,1-.69,0l-13-2.18A1.62,1.62,0,0,0,178.2,531.85Z"/><path class="cls-2" d="M173.63,548.08c.89-.52,1.76-1.05,2.57-1.62a4.55,4.55,0,0,1,2-.71v-13.9a4.4,4.4,0,0,0-2,.74,39.68,39.68,0,0,1-5.25,3c-.77.38-1.2,1-1,1.56l3.56,7.06a.59.59,0,0,1,.07.29C173.61,544.92,173.63,548.08,173.63,548.08Z"/><path class="cls-4" d="M150.22,541.14V555a2,2,0,0,1,.8.45l6.3,6.62a1.87,1.87,0,0,0,1.14.46V548.67a1.88,1.88,0,0,1-1.17-.45l-6.3-6.64A1.88,1.88,0,0,0,150.22,541.14Z"/><path class="cls-2" d="M139.55,541.06v13.88a2.56,2.56,0,0,1,.83-.12,70,70,0,0,0,8.57,0,3.48,3.48,0,0,1,1.27.2V541.14a3.17,3.17,0,0,0-1.29-.2,70,70,0,0,1-8.57,0A2.24,2.24,0,0,0,139.55,541.06Z"/><path class="cls-4" d="M131.17,548.6v13.88a2.82,2.82,0,0,0,1.25-.73l5.65-5.94a3.61,3.61,0,0,1,1.48-.87V541.06a3.62,3.62,0,0,0-1.51.87l-5.64,5.93A2.83,2.83,0,0,1,131.17,548.6Z"/><path class="cls-1" d="M115.83,544.67v3.44h0v5.45c0,2.46,0,4.86,0,5a.88.88,0,0,0,.7.75l13.68,3.27a1.83,1.83,0,0,0,.94-.07V548.6a2,2,0,0,1-1,.08l-13.68-3.28A.85.85,0,0,1,115.83,544.67Z"/><path class="cls-4" d="M111.41,531.88v13.88a2.92,2.92,0,0,1,1.37.42c1,.68,2,1.32,3,1.93,0,0,0-3.17,0-3.61a1.19,1.19,0,0,1,.14-.56l3.29-6.51a1.18,1.18,0,0,0-.42-1.65,38.28,38.28,0,0,1-6.08-3.48A2.69,2.69,0,0,0,111.41,531.88Z"/><path class="cls-1" d="M90.38,525.5c0,.69,0,13.5,0,13.87a.7.7,0,0,0,.12.35L96,547.31a1.58,1.58,0,0,0,.93.54V534a1.72,1.72,0,0,1-1-.54l-5.44-7.61A.5.5,0,0,1,90.38,525.5Z"/><path class="cls-3" d="M172.84,489.25,159.15,486a2.59,2.59,0,0,0-2.2.81l-5.63,5.92a3.39,3.39,0,0,1-2.32,1,70,70,0,0,0-8.57,0,3,3,0,0,1-2.07-.64l-6.29-6.62a2.45,2.45,0,0,0-2.12-.4l-13.17,3.14c-.64.16-1,.55-1,1a.66.66,0,0,0,.06.27l3.57,7.08c.26.49-.17,1.17-.94,1.54-.93.45-1.83.92-2.68,1.4s-1.77,1.07-2.57,1.63a4,4,0,0,1-2.48.7l-13-2.17a2.36,2.36,0,0,0-2,1l-5,6.91a1.32,1.32,0,0,0-.28.76v0A.74.74,0,0,0,91,510l11.84,3.76a1.36,1.36,0,0,1,.88,1.51,13.66,13.66,0,0,0,0,4.28,1.54,1.54,0,0,1-1.22,1.48l-11.19,3.54a1.53,1.53,0,0,0-.86.6h0a.75.75,0,0,0-.09.3v0h0a.51.51,0,0,0,.12.34l5.44,7.59a2.2,2.2,0,0,0,2,.58l12.57-2.11a3.41,3.41,0,0,1,2.25.4,38.17,38.17,0,0,0,6.07,3.48,1.17,1.17,0,0,1,.41,1.65L116,543.94a1,1,0,0,0,.56,1.46l13.69,3.28a2.63,2.63,0,0,0,2.19-.82l5.64-5.93a3.42,3.42,0,0,1,2.32-1,72.05,72.05,0,0,0,8.57,0,3,3,0,0,1,2.06.65l6.3,6.63a2.5,2.5,0,0,0,2.13.39l13.16-3.14c.78-.2,1.21-.75,1-1.25L170,537.16c-.25-.51.17-1.18.94-1.56a38.15,38.15,0,0,0,5.26-3,3.92,3.92,0,0,1,2.47-.71l13,2.18a2.32,2.32,0,0,0,2-1l5-6.91a1.33,1.33,0,0,0,.28-.77.74.74,0,0,0-.55-.74l-11.84-3.75a1.39,1.39,0,0,1-.88-1.51,13.42,13.42,0,0,0,0-4.29,1.53,1.53,0,0,1,1.22-1.48L198,510.09c.58-.18.94-.52,1-.88v0a.6.6,0,0,0-.11-.34l-5.46-7.6a2.2,2.2,0,0,0-2-.58l-12.56,2.11a3.56,3.56,0,0,1-2.26-.38,32.93,32.93,0,0,0-3-1.95c-1-.54-2-1.06-3-1.55a1.18,1.18,0,0,1-.41-1.65l3.28-6.49a1.42,1.42,0,0,0,.15-.53.07.07,0,0,0,0-.05A.9.9,0,0,0,172.84,489.25Zm-37.37,15.24c12.28-2.93,26.35.43,31.44,7.52a8.51,8.51,0,0,1,1.23,8.4,1.69,1.69,0,0,1-.13.31c0,.09-.08.18-.12.28l-.14.27a.11.11,0,0,1,0,.06,13.34,13.34,0,0,1-4.1,4.57,21.09,21.09,0,0,1-2,1.31,29.45,29.45,0,0,1-7.72,2.95c-9.21,2.2-19.43.86-26.11-2.94a15.92,15.92,0,0,1-2.06-1.35,14.34,14.34,0,0,1-3.27-3.23,8.51,8.51,0,0,1-.66-9.59,2.53,2.53,0,0,0,.13-.22c.09-.16.19-.31.29-.46s.33-.48.51-.72l.49-.59.23-.25.34-.35C126.32,507.87,130.33,505.73,135.47,504.49Z"/></g><g id="Robot"><path class="cls-3" d="M580.07,513.8a9.26,9.26,0,0,1-1.72-.16l-97.43-18.4a9.19,9.19,0,0,1,3.41-18.07l97.44,18.4a9.2,9.2,0,0,1-1.7,18.23Z"/><path class="cls-5" d="M564.84,492.37c-8.13-1.53-12.11,16.43-5.65,17.65"/><path class="cls-5" d="M548.61,489.31c-8.13-1.54-12.11,16.42-5.65,17.64"/><path class="cls-5" d="M532.38,486.24c-8.13-1.54-12.11,16.42-5.65,17.64"/><path class="cls-5" d="M516.15,483.17c-8.13-1.54-12.11,16.42-5.65,17.64"/><path class="cls-5" d="M499.92,480.1c-8.13-1.53-12.11,16.43-5.65,17.65"/><path class="cls-4" d="M473.43,486.25a9.2,9.2,0,0,0,7.49,9l97.43,18.4a9.19,9.19,0,0,0,10.74-7.33c0-.11,0-.22,0-.33Z"/><path class="cls-6" d="M685,433.55c-7.28-1.93-18.74-2.53-28.39,5.17-7.85,6.27-16.94,34.54-20,44.35l-51.52-.13h0c-1.72,0-5.37,1.44-7.53,3.58-8.63,8.56-10.27,18.14-9.53,27.25.46,5.63,4.28,9.5,7,10h0c.81.17,68.59,13.89,78.2,15.59,16,2.83,12.53,2.79,22-10.78,6.22-8.93,6.22-22.1,6.22-30.81s3.91-23.14,7.22-34.45S692.32,435.48,685,433.55Z"/><path class="cls-4" d="M674.7,433.74c-8.56,3.2-13.86,10.67-16.47,22.23s-.29,21-2.72,37.65A98.39,98.39,0,0,1,647,519.7c-3.3,6.25-8,8.86-16.86,7.33s-40-6.12-48.13-9.9a12.62,12.62,0,0,1-7.49-11.95s8.52.09,15.47-2.85,6.43-6.27,6.23-8.09L587.75,483h-2.6c-1.72,0-5.37,1.44-7.53,3.58-8.63,8.56-10.27,18.14-9.53,27.25.46,5.63,4.28,9.5,7,10h0c.81.17,68.59,13.89,78.2,15.59,16,2.83,12.53,2.79,22-10.78,6.22-8.93,6.22-22.1,6.22-30.81s3.91-23.14,7.22-34.45a57.34,57.34,0,0,0,2.09-11.9C684.37,440.8,678,432.5,674.7,433.74Z"/><path class="cls-3" d="M685,433.55l-1.43-.35h-.05a38.39,38.39,0,0,0-4.76-.73c-11,2.21-16.17,11.92-17.76,25.29s-.13,28.34-1.12,37.65-6.77,24.3-6.39,34.2c.15,3.84,1.15,7.68,3.4,10.38,11.91,2.09,9.72,1,18.4-11.42,6.22-8.93,6.22-22.1,6.22-30.81s3.91-23.14,7.22-34.45S692.32,435.48,685,433.55Z"/><path class="cls-4" d="M636.67,483.07a229.77,229.77,0,0,0-4.91,25.51,93.44,93.44,0,0,1,0-25.53Z"/><path class="cls-1" d="M669.1,448.83c-5,12.83-3.06,32.35-4.16,45s-6.81,30.3-5.94,37,4.22,11.34,9.32,8.36a21.46,21.46,0,0,0,6.38-7.63c1.49-2.94,2.59-6.18,3.32-7.93,3.53-8.38,3.53-18.64,3.53-25.85,0-8.72,3.91-23.14,7.22-34.45,2.48-8.45,3.23-19.81.42-25.81C687,432.59,674.6,434.71,669.1,448.83Z"/><path class="cls-2" d="M665.37,481c0,.6,0,1.2,0,1.78l21.38-12.33c.19-.71.39-1.42.59-2.11Z"/><path class="cls-2" d="M689.62,438.55l-21.2,12.24c-.22.69-.42,1.41-.61,2.13l22.29-12.87Q689.89,439.27,689.62,438.55Z"/><path class="cls-2" d="M684.37,479.56l-19.23,11.1c0,.63-.07,1.24-.11,1.84l18.87-10.9C684.05,480.93,684.21,480.24,684.37,479.56Z"/><path class="cls-2" d="M661.45,513.51l20.08-11.59c0-.6,0-1.2,0-1.78L661.88,511.5C661.73,512.17,661.59,512.84,661.45,513.51Z"/><path class="cls-2" d="M665.56,471.44c0,.6,0,1.19,0,1.79l24.27-14c.14-.66.26-1.32.38-2Z"/><path class="cls-2" d="M664,500.82c-.11.66-.23,1.31-.35,2l18.3-10.56c.08-.63.17-1.27.27-1.93Z"/><path class="cls-2" d="M691,449q0-.9,0-1.77l-24.72,14.27c-.07.63-.14,1.25-.2,1.88Z"/><path class="cls-2" d="M678.36,522.74c.28-.73.54-1.47.77-2.21L659.21,532a10.67,10.67,0,0,0,.45,1.5Z"/><path class="cls-2" d="M680.93,511.84c.07-.63.14-1.26.2-1.89l-21.45,12.41c-.12.67-.23,1.33-.32,1.95Z"/><path class="cls-6" d="M574.14,501.28c11.91,1.13,21.56-3.2,22-7,0,0,2.87-16-18.34-17.74S556,490.35,556,490.35C556,494,562.23,500.15,574.14,501.28Z"/><path class="cls-7" d="M574.14,501.28c11.91,1.13,21.56-3.2,22-7,0,0,2.87-16-18.34-17.74S556,490.35,556,490.35C556,494,562.23,500.15,574.14,501.28Z"/><path class="cls-6" d="M596.17,494.24a14.84,14.84,0,0,0-3.9-12.12c.82,1.55,4.22,9.33-8.22,12.89-13.85,4-26.57-4.73-27.26-8.16h0a13.23,13.23,0,0,0-.77,3.5c0,3.65,6.21,9.8,18.12,10.93S595.7,498.08,596.17,494.24Z"/><path class="cls-8" d="M596.17,494.24a14.84,14.84,0,0,0-3.9-12.12c.82,1.55,4.22,9.33-8.22,12.89-13.85,4-26.57-4.73-27.26-8.16h0a13.23,13.23,0,0,0-.77,3.5c0,3.65,6.21,9.8,18.12,10.93S595.7,498.08,596.17,494.24Z"/><path class="cls-3" d="M550.84,347.45c-.31-3.32-1.55-10.22-7.32-12.94s-8.94,0-8.11,2.54,6.81,3.34,7.05,12.05C542.46,349.1,547.66,351.36,550.84,347.45Z"/><path class="cls-4" d="M545.8,346.1c-.78-5.25-4.22-7.64-6.07-9.09s-2.14-3,0-3.61c-3.31-.28-5,1.72-4.32,3.65.84,2.58,6.81,3.34,7.05,12.05a9.29,9.29,0,0,0,3.75.64C546.13,348.65,546,347.43,545.8,346.1Z"/><path class="cls-6" d="M538.4,353.46c3.74-7.59,15.64-8.64,24.89,0,13.88,12.94,16.16,25.77,10.3,32.6s-14.8,4.86-22.75-2.3C544.72,378.25,533,364.45,538.4,353.46Z"/><path class="cls-9" d="M573.59,386.06a12.8,12.8,0,0,0,3-7.75c-.71,3.83-2.64,6.53-5.24,7.46-3.19,1.13-8.84,2.88-18.22-6.83s-14.32-25.84-7.93-31a10.74,10.74,0,0,0-6.78,5.52c-5.43,11,6.32,24.79,12.44,30.3C558.79,390.92,567.74,392.89,573.59,386.06Z"/><path class="cls-3" d="M518.35,383c-23.53-12.52-36.36-18.78-48-12.77l-5.64-10.88c17.85-9.25,35.26,0,59.35,12.83Z"/><path class="cls-10" d="M484.88,356c3.06,2.17,4.54,8.85,1.58,12.79"/><path class="cls-10" d="M499.9,360.27c2.15,1.76,3.59,9-.54,13.15"/><path class="cls-4" d="M470.4,370.27c11.59-6,24.42.25,48,12.77l2.38-4.47A137.75,137.75,0,0,0,504,369.34c-16.56-7.49-22.86-8.34-35.84-3.49Z"/><circle class="cls-6" cx="456.27" cy="367.29" r="19.88" transform="translate(-105.82 202.57) rotate(-22.5)"/><circle class="cls-11" cx="456.27" cy="367.29" r="19.88" transform="translate(-105.82 202.57) rotate(-22.5)"/><circle class="cls-6" cx="436.59" cy="475.94" r="49.45"/><circle class="cls-12" cx="436.59" cy="475.94" r="49.45"/><path class="cls-4" d="M439.69,514.69c-12.28-1.42-18.08-8.8-18.08-8.8s42.91.12,63.45-39.77a49.47,49.47,0,0,0-26.54-34.5L400.74,441.9A49.45,49.45,0,1,0,479,501.47C469.13,513.16,452.15,516.13,439.69,514.69Z"/><path class="cls-6" d="M484.71,449.51h0l-.26-.52c-.07-.13-.13-.27-.2-.41A237.23,237.23,0,0,1,470.8,412c-6.37-22.38-7.09-45.55-7.09-45.55h-114c0,42.69,8.2,84.63,26.87,117.11h0c3.19,6.24,9.92,11.41,19.94,14.44,24.61,7.45,59.75-.78,78.5-18.36C485.8,469.47,488.79,458.45,484.71,449.51Z"/><path class="cls-9" d="M472.23,482c-8,5.87-26.09,13.17-39.64,13-15.51-.15-46.6-8.74-57.71-33s-14.7-69.16-14.7-69.16,13.18,7.55,43,6.81l-3.9-33.3H349.7c0,42.69,8.2,84.63,26.87,117.11h0c3.19,6.24,9.92,11.41,19.94,14.44C420,505,452.94,497.91,472.23,482Z"/><path class="cls-1" d="M478.2,434.26c-.15-.4-.31-.83-.47-1.24-.1-.25-.18-.5-.29-.74l0-.16c-2.08-5.58-4.37-12.36-6.6-20.17a193.1,193.1,0,0,1-5.42-27l0-.13c1.27,9.25-4.23,18.78-16.52,25.86-14.68,8.48-35.38,11.37-54.16,8.66,2.2,21,9.29,43.2,21,59.9,18.29,1.35,39.89-5.46,52.09-16.88C477.74,453,481,442.83,478.2,434.26Z"/><path class="cls-3" d="M475.3,433.16c-.15-.41-.3-.84-.45-1.26-.09-.25-.17-.5-.28-.74l0-.16c-2-5.63-4.13-12.45-6.2-20.3A175,175,0,0,1,464.7,393c-1.92,6.48-7.19,12.7-15.87,17.7-14.68,8.48-35.38,11.37-54.16,8.66,2,19.5,8.28,39.94,18.48,56.12,17.84,1.11,39.24-3.71,51.14-14.41C474.47,451.86,478,441.77,475.3,433.16Z"/><path class="cls-2" d="M441.53,427.94l-5.74-2.61s-21,4.92-33.62,3.74a81.16,81.16,0,0,0,2.41,18.63c2.85,10.52,6.87,16.56,6.87,16.56l6.63,3.21Z"/><path class="cls-1" d="M406.85,434.31c0,8,6.61,27.67,11.23,33.16,0,0,23.19-1.09,33.18-10.24-.31-2.55-9.73-29.29-9.73-29.29C435.41,432.46,417.28,434.33,406.85,434.31Z"/><circle class="cls-6" cx="444" cy="453.69" r="2.31"/><circle class="cls-6" cx="436.92" cy="456" r="1.13"/><path class="cls-6" d="M442.9,440.83a.69.69,0,0,1-.31.06.76.76,0,0,1-.7-.46.79.79,0,0,1,.41-1,4.47,4.47,0,0,0,2.59-5.36l-5.39-19c.47-.18,1-.37,1.42-.57l5.44,19.16A6,6,0,0,1,442.9,440.83Z"/><path class="cls-6" d="M433.66,443.77a.67.67,0,0,1-.3.06.77.77,0,0,1-.71-.47.79.79,0,0,1,.41-1,4.48,4.48,0,0,0,2.59-5.36l-5.44-19.14,1.49-.36,5.42,19.09A6,6,0,0,1,433.66,443.77Z"/><path class="cls-6" d="M424.42,446.7a.61.61,0,0,1-.29.06.77.77,0,0,1-.72-.46.79.79,0,0,1,.41-1,4.46,4.46,0,0,0,2.59-5.36l-5.77-20.35c.5-.06,1-.12,1.53-.2l5.72,20.13A6,6,0,0,1,424.42,446.7Z"/><g class="cls-13"><path d="M442.9,440.83a.69.69,0,0,1-.31.06.76.76,0,0,1-.7-.46.79.79,0,0,1,.41-1,4.47,4.47,0,0,0,2.59-5.36l-5.39-19c.47-.18,1-.37,1.42-.57l5.44,19.16A6,6,0,0,1,442.9,440.83Z"/><path d="M433.66,443.77a.67.67,0,0,1-.3.06.77.77,0,0,1-.71-.47.79.79,0,0,1,.41-1,4.48,4.48,0,0,0,2.59-5.36l-5.44-19.14,1.49-.36,5.42,19.09A6,6,0,0,1,433.66,443.77Z"/><path d="M424.42,446.7a.61.61,0,0,1-.29.06.77.77,0,0,1-.72-.46.79.79,0,0,1,.41-1,4.46,4.46,0,0,0,2.59-5.36l-5.77-20.35c.5-.06,1-.12,1.53-.2l5.72,20.13A6,6,0,0,1,424.42,446.7Z"/></g><path class="cls-1" d="M448.83,410.69c-1.18.68-2.41,1.32-3.67,1.93,1.34,6.83,3.83,17.46,6.34,23.23,0,0,12.18-3.71,16.28-11.76a188.61,188.61,0,0,1-6.15-24.75A37.76,37.76,0,0,1,448.83,410.69Z"/><path class="cls-6" d="M460,409a1.33,1.33,0,1,1-1.33-1.32A1.32,1.32,0,0,1,460,409Z"/><path class="cls-6" d="M461.93,415a1.33,1.33,0,1,1-1.33-1.32A1.33,1.33,0,0,1,461.93,415Z"/><path class="cls-6" d="M464.58,421.14a1.33,1.33,0,1,1-2.65,0,1.33,1.33,0,0,1,2.65,0Z"/><path class="cls-6" d="M453.67,431.06a.78.78,0,0,1-.71-.48,141.21,141.21,0,0,1-4.25-16.53.77.77,0,1,1,1.51-.25,144,144,0,0,0,4.16,16.2.77.77,0,0,1-.42,1A.72.72,0,0,1,453.67,431.06Z"/><path class="cls-6" d="M457.88,428.33a.77.77,0,0,1-.71-.48,141.52,141.52,0,0,1-4.25-16.52.77.77,0,1,1,1.51-.26,142.92,142.92,0,0,0,4.16,16.2.77.77,0,0,1-.42,1A.72.72,0,0,1,457.88,428.33Z"/><path class="cls-6" d="M557.07,418.2s-9.93,15.74-32.84,24.12A99.76,99.76,0,0,1,484,447.94a242.53,242.53,0,0,1-13.17-36,191.78,191.78,0,0,1-5.42-27s17.67,2.3,36.6-9.56c21.59-13.5,26.53-28,26.53-28C541.91,366.3,551.29,390.08,557.07,418.2Z"/><path class="cls-11" d="M557.07,418.2s-9.93,15.74-32.84,24.12A99.76,99.76,0,0,1,484,447.94a242.53,242.53,0,0,1-13.17-36,191.78,191.78,0,0,1-5.42-27s17.67,2.3,36.6-9.56c21.59-13.5,26.53-28,26.53-28C541.91,366.3,551.29,390.08,557.07,418.2Z"/><path class="cls-11" d="M557.07,418.2c-5.78-28.12-15.16-51.9-28.56-70.79a28.84,28.84,0,0,1-2.5,5c11.44,13.33,25.23,46.57,27.49,70.39A44.47,44.47,0,0,0,557.07,418.2Z"/><circle class="cls-1" cx="529.7" cy="395.94" r="3.93"/><ellipse class="cls-6" cx="406.7" cy="366.85" rx="57.01" ry="32.91"/><ellipse class="cls-14" cx="406.7" cy="366.85" rx="57.01" ry="32.91"/><path class="cls-9" d="M366.39,343.58c-8.69,5-14,11.25-15.87,17.75,1.52,5.62,6,11,13.52,15.35,18.82,10.86,49.33,10.86,68.15,0s18.82-28.28.31-39.16C411.1,331.24,384.29,333.25,366.39,343.58Z"/><path class="cls-6" d="M481.53,431.42a11.62,11.62,0,0,0-7.48-1.82,14.31,14.31,0,0,0-8.24,3.63,8.61,8.61,0,0,0-.74.74,14,14,0,0,0-7.55,5,10.61,10.61,0,0,0-2,4.36,8.34,8.34,0,0,0-1.84,4.16,9.32,9.32,0,0,0,1.94,6.69,14.24,14.24,0,0,0,10.18,5.53c.78-.76,1.51-1.53,2.2-2.29a12.53,12.53,0,0,1-8.16-2.38c-2.35-1.64-4.22-4.46-4-7.28,0,.05,0,.11,0,.16a10.6,10.6,0,0,0,6.06,5.83,7.66,7.66,0,0,0,7.95-1.08,6.64,6.64,0,0,0,1.58-2.12,11.48,11.48,0,0,0,1.44.08c2.71,0,5.28-1,6.6-3.44a8.71,8.71,0,0,0,.2-7.32,9.17,9.17,0,0,0-3.85-4.49,11.06,11.06,0,0,0-1.79-.89,14.61,14.61,0,0,0-5.58-1,12.73,12.73,0,0,1,6.13-2.36,13.11,13.11,0,0,1,3.54.08,10.58,10.58,0,0,1,3.17,1C481.9,432.51,481.94,431.71,481.53,431.42Zm-22.65,9a11.74,11.74,0,0,1,4.43-3.83,11,11,0,0,0-.92,2.85,12.42,12.42,0,0,0-3.68,1.25C458.76,440.63,458.82,440.54,458.88,440.45Zm5.21,11.6a8.71,8.71,0,0,1-5.59-3.74,6.49,6.49,0,0,1-1-4.25,9,9,0,0,1,4.74-2.57,8.65,8.65,0,0,0,2.76,6.3,10.8,10.8,0,0,0,4.15,2.27A4.7,4.7,0,0,1,464.09,452.05Zm3-5.3a7.05,7.05,0,0,1-2.67-5.37,5.4,5.4,0,0,1,3.85,2.07,7,7,0,0,1,1.48,4.66A9.12,9.12,0,0,1,467.1,446.75Zm5.08-10.85a8.64,8.64,0,0,1,3.94,2.33,5.85,5.85,0,0,1,1.16,1.62,7.63,7.63,0,0,1,.65,5.56,4.52,4.52,0,0,1-4,3.1,7.76,7.76,0,0,1-1.93,0,8.29,8.29,0,0,0-.31-3.54,7.88,7.88,0,0,0-5.47-5.45,9.94,9.94,0,0,0-1.64-.21,9.16,9.16,0,0,1,1.66-3.73A12.27,12.27,0,0,1,472.18,435.9Z"/><path class="cls-14" d="M481.53,431.42a11.62,11.62,0,0,0-7.48-1.82,14.31,14.31,0,0,0-8.24,3.63,8.61,8.61,0,0,0-.74.74,14,14,0,0,0-7.55,5,10.61,10.61,0,0,0-2,4.36,8.34,8.34,0,0,0-1.84,4.16,9.32,9.32,0,0,0,1.94,6.69,14.24,14.24,0,0,0,10.18,5.53c.78-.76,1.51-1.53,2.2-2.29a12.53,12.53,0,0,1-8.16-2.38c-2.35-1.64-4.22-4.46-4-7.28,0,.05,0,.11,0,.16a10.6,10.6,0,0,0,6.06,5.83,7.66,7.66,0,0,0,7.95-1.08,6.64,6.64,0,0,0,1.58-2.12,11.48,11.48,0,0,0,1.44.08c2.71,0,5.28-1,6.6-3.44a8.71,8.71,0,0,0,.2-7.32,9.17,9.17,0,0,0-3.85-4.49,11.06,11.06,0,0,0-1.79-.89,14.61,14.61,0,0,0-5.58-1,12.73,12.73,0,0,1,6.13-2.36,13.11,13.11,0,0,1,3.54.08,10.58,10.58,0,0,1,3.17,1C481.9,432.51,481.94,431.71,481.53,431.42Zm-22.65,9a11.74,11.74,0,0,1,4.43-3.83,11,11,0,0,0-.92,2.85,12.42,12.42,0,0,0-3.68,1.25C458.76,440.63,458.82,440.54,458.88,440.45Zm5.21,11.6a8.71,8.71,0,0,1-5.59-3.74,6.49,6.49,0,0,1-1-4.25,9,9,0,0,1,4.74-2.57,8.65,8.65,0,0,0,2.76,6.3,10.8,10.8,0,0,0,4.15,2.27A4.7,4.7,0,0,1,464.09,452.05Zm3-5.3a7.05,7.05,0,0,1-2.67-5.37,5.4,5.4,0,0,1,3.85,2.07,7,7,0,0,1,1.48,4.66A9.12,9.12,0,0,1,467.1,446.75Zm5.08-10.85a8.64,8.64,0,0,1,3.94,2.33,5.85,5.85,0,0,1,1.16,1.62,7.63,7.63,0,0,1,.65,5.56,4.52,4.52,0,0,1-4,3.1,7.76,7.76,0,0,1-1.93,0,8.29,8.29,0,0,0-.31-3.54,7.88,7.88,0,0,0-5.47-5.45,9.94,9.94,0,0,0-1.64-.21,9.16,9.16,0,0,1,1.66-3.73A12.27,12.27,0,0,1,472.18,435.9Z"/><path class="cls-4" d="M453.67,447.26a6.79,6.79,0,0,0,2.51,3.14,6.55,6.55,0,0,1-.39-2.66c0,.05,0,.11,0,.16a11.76,11.76,0,0,1-.36-4.59A8.47,8.47,0,0,0,453.67,447.26Z"/><path class="cls-4" d="M458.11,443.52a9.68,9.68,0,0,1,.6-2.8,7,7,0,0,0-1.21,3.34C457.69,443.87,457.9,443.7,458.11,443.52Z"/><path class="cls-4" d="M461.43,437.81a12.39,12.39,0,0,1,1.88-1.19,10,10,0,0,1,1.76-2.65,12.76,12.76,0,0,0-1.55.51A7.5,7.5,0,0,0,461.43,437.81Z"/><path class="cls-4" d="M462.39,439.47c-.29,0-.57.1-.85.17a12.88,12.88,0,0,0-.35,2.14,9.6,9.6,0,0,1,1.05-.29A7,7,0,0,1,462.39,439.47Z"/><path class="cls-4" d="M471.42,450.53a22.24,22.24,0,0,1-2.27-.47,4.44,4.44,0,0,1-.89,1,5.61,5.61,0,0,0,2.21.87A7.25,7.25,0,0,0,471.42,450.53Z"/><path class="cls-4" d="M468.44,433.49a17.12,17.12,0,0,0-2.2,2.13c.26-.05.54-.07.81-.11A13.49,13.49,0,0,1,468.44,433.49Z"/><path class="cls-4" d="M464.43,441.38c.15,0,.3.06.45.09a7,7,0,0,1,0-2.1l-.3,0A10.5,10.5,0,0,0,464.43,441.38Z"/><path class="cls-4" d="M472.07,447.7a7.52,7.52,0,0,1-2.32,0c0,.13,0,.27,0,.41a9.76,9.76,0,0,0,2.24.44A8.12,8.12,0,0,0,472.07,447.7Z"/><g id="Arm"><path class="cls-6" d="M376.54,424.79c0,4.29-1.44,7.35-3.79,8.9a14.88,14.88,0,0,1-1.82.82,19.88,19.88,0,0,1-19.28-34.33.27.27,0,0,1,.16-.14c.24-.16.46-.34.7-.48l.08-.06c2.52-1.46,6-1.24,9.91,1C370.25,405,376.54,415.84,376.54,424.79Z"/><path class="cls-11" d="M376.54,424.79c0,4.29-1.44,7.35-3.79,8.9a14.88,14.88,0,0,1-1.82.82,19.88,19.88,0,0,1-19.28-34.33.27.27,0,0,1,.16-.14c.24-.16.46-.34.7-.48l.08-.06c2.52-1.46,6-1.24,9.91,1C370.25,405,376.54,415.84,376.54,424.79Z"/><path class="cls-9" d="M376.54,424.79c0-6.91-3.75-15-9-20.33,3.94,4.93,7.72,17.48,2.84,23.9s-22.5,2.76-26-7.76a19.86,19.86,0,0,0,26.55,13.91,14.88,14.88,0,0,0,1.82-.82C375.1,432.14,376.54,429.08,376.54,424.79Z"/><path class="cls-6" d="M353.31,546.76a20,20,0,0,0-.21,8.84c.25,1.23,1.52,2.23,2.1,1.64l12.08-12.39,9.7,2.41,2.77,9.61-12.65,13c-.48.48-.42,1,.08,1.13l.89.25a20.2,20.2,0,0,0,17.41-35.44l15.88-66.22a20.2,20.2,0,0,0,15.82-23.77c-.24-1.24-1.52-2.24-2.1-1.65L403,456.54l-9.69-2.4-2.77-9.62,12.65-13c.45-.47.39-1-.08-1.14-.3-.09-.59-.17-.9-.24a20.2,20.2,0,0,0-17.4,35.44l-15.89,66.22A20.17,20.17,0,0,0,353.31,546.76Z"/><path class="cls-15" d="M353.31,546.76a20,20,0,0,0-.21,8.84c.25,1.23,1.52,2.23,2.1,1.64l12.08-12.39,9.7,2.41,2.77,9.61-12.65,13c-.48.48-.42,1,.08,1.13l.89.25a20.2,20.2,0,0,0,17.41-35.44l15.88-66.22a20.2,20.2,0,0,0,15.82-23.77c-.24-1.24-1.52-2.24-2.1-1.65L403,456.54l-9.69-2.4-2.77-9.62,12.65-13c.45-.47.39-1-.08-1.14-.3-.09-.59-.17-.9-.24a20.2,20.2,0,0,0-17.4,35.44l-15.89,66.22A20.17,20.17,0,0,0,353.31,546.76Z"/><path class="cls-6" d="M394,496.66c-3.38,2.26-6.21,2.39-9.87,1.09a10.7,10.7,0,0,1-5.86-5.07L370,527.36a20,20,0,0,0,5.82,2.34,19.57,19.57,0,0,0,11.33-.83l7.56-31.51C394.48,497.12,394.27,496.89,394,496.66Z"/><path class="cls-8" d="M394,496.66c-3.38,2.26-6.21,2.39-9.87,1.09a10.7,10.7,0,0,1-5.86-5.07L370,527.36a20,20,0,0,0,5.82,2.34,19.57,19.57,0,0,0,11.33-.83l7.56-31.51C394.48,497.12,394.27,496.89,394,496.66Z"/><path class="cls-3" d="M363.68,502c-12.92.92-31.57-6-40-14.15-4.49-4.32-5.45-10.39-3-19.1,4.67-16.83,24.84-40.08,34.41-44.59h0a3,3,0,0,0,1.38-2.85,9.59,9.59,0,0,0-4.33-7.51,3.08,3.08,0,0,0-3-.33h0c-13.32,6.28-35.64,32.83-41.08,52.43-3.66,13.15-1.52,23.65,6.35,31.21,10.17,9.77,30.86,17.26,46.85,17.26,1.15,0,2.29,0,3.39-.12Z"/><path class="cls-5" d="M334.77,424.35c3.93-.79,9.61,3.59,9.57,8.11"/><path class="cls-5" d="M325.67,434.49c3.85-.94,9.69,2.6,11.05,6.38"/><path class="cls-5" d="M317.18,446.33c4.33-1,9.68,2.17,11.21,6"/><path class="cls-5" d="M322.35,463.73c-1.13-3.06-10.22-5.07-13.29-1.28"/><path class="cls-5" d="M319.33,476.22C318,473.17,308,474.06,306.28,479"/><path class="cls-5" d="M322.79,486.9c-1.42-1.91-11.12.67-11.64,6.5"/><path class="cls-5" d="M332.3,493.93c-3.9-1.31-11,4.66-8.22,10.15"/><path class="cls-5" d="M341.93,498.25c-3.27.15-7.42,6.67-5.39,11.43"/><path class="cls-5" d="M352.71,501.19c-3.35,1.18-5.55,7.76-3.58,11.9"/><path class="cls-4" d="M310,469c4.33-19.53,20.53-36.07,29-43.94,5.41-5,11.51-8.28,15.64-8.89a8.37,8.37,0,0,0-2.55-2.46,3.08,3.08,0,0,0-3-.33h0c-13.32,6.28-35.64,32.83-41.08,52.43-3.66,13.15-1.52,23.65,6.35,31.21C314.33,497,305.66,488.6,310,469Z"/><path class="cls-4" d="M363.68,502c-12.92.92-31.57-6-40-14.15a13.6,13.6,0,0,1-4.06-7.71l-.25,0c1,6.24,1.78,13.62,19.64,20.75a58,58,0,0,0,24.92,4.13Z"/><path class="cls-3" d="M371.83,491.33c-.53-5.51.2-11.82,2.59-15.66s6.26-6.51,8.08-3.34c1.21,2.11-1.37,5.33-2.57,9.3a17.82,17.82,0,0,0-.26,7.3Z"/><path class="cls-4" d="M379.93,481.63c1.2-4,3.78-7.19,2.57-9.3a2.62,2.62,0,0,0-1.47-1.28h0c1,1.42-1.41,4.08-3.14,7.49A21.52,21.52,0,0,0,376.3,490l3.37-1A17.82,17.82,0,0,1,379.93,481.63Z"/><path class="cls-6" d="M400.9,511.57a19.65,19.65,0,1,1-21.4-23.87c.19,2.56,3,5.64,6.28,6.79,3.66,1.3,6.48,1.17,9.87-1.09A19.66,19.66,0,0,1,400.9,511.57Z"/><path class="cls-6" d="M400.9,511.57a19.65,19.65,0,1,1-21.4-23.87c.19,2.56,3,5.64,6.28,6.79,3.66,1.3,6.48,1.17,9.87-1.09A19.66,19.66,0,0,1,400.9,511.57Z"/><path class="cls-9" d="M400.9,511.57a19.65,19.65,0,0,0,.33-2c-2.71,5.45-9.27,13.06-22.29,10.82-13.36-2.29-16.13-18.31-14.38-22.67a19.12,19.12,0,0,0-2,5.24,19.65,19.65,0,0,0,38.35,8.6Z"/><path class="cls-3" d="M401,503.4c6.7-2.7,8.9-8.83,7.87-15s-9.93-8.64-9.93-8.64l-1.72,7.17s4.39,1.62,4.17,4.68-3.41,4.66-3.41,4.66S395.81,500.93,401,503.4Z"/><path class="cls-4" d="M398.93,479.71l-1.72,7.17s4.39,1.62,4.17,4.68-3.41,4.66-3.41,4.66a5.32,5.32,0,0,0,1.35,6.11h0c-.71-2.4.82-3.56,3.21-6.11s1.43-6.87-.09-9.58a7.76,7.76,0,0,1-.46-5.77A20.2,20.2,0,0,0,398.93,479.71Z"/><path class="cls-3" d="M400.12,514.18c5.2,1.57,11.5-.6,12.35-4.85s-.56-7.77-5.5-10.64a12.79,12.79,0,0,1-6,4.71l.32,2.29C398.86,507.94,398.93,511.54,400.12,514.18Z"/><path class="cls-4" d="M407,498.69a12.79,12.79,0,0,1-6,4.71l.32,2.29h6.38s-1.65-.54-1.17-1.61,3.15-.68,4.44,1a5.73,5.73,0,0,1,.34,6.59,5.24,5.24,0,0,0,1.17-2.34C413.32,505.08,411.91,501.56,407,498.69Z"/><path class="cls-3" d="M393,523.34a21.7,21.7,0,0,0,7,4.13c2,.75,5.49.8,7.37-1.22s.58-4.21-.82-5.2a46.76,46.76,0,0,0-7.65-4.28S393.49,516.77,393,523.34Z"/><path class="cls-4" d="M406.58,521.05a46.76,46.76,0,0,0-7.65-4.28,6.07,6.07,0,0,0-4.49,2.36c1.15-1.16,5,1,8.11,2.87s5.6,3,4.32,4.71a4.6,4.6,0,0,0,.53-.46C409.41,524.09,408,522,406.58,521.05Z"/></g><path class="cls-3" d="M550.58,365.71a4.23,4.23,0,0,0,2.25-5.27c-1.25-3.68-5.7-4.77-5.7-4.77s-8.25-2.27-14.54,1.5-6.38,11.77-6.19,14.32a3.6,3.6,0,0,0,7,.78c1.45-3.15,1.44-7.49,6.68-9C544.37,362,548,366.85,550.58,365.71Z"/><path class="cls-4" d="M548.05,362.38c-4.37-1.79-9-4.13-12.77,0s-2.94,8.16-4.49,9.87-3.39,1.4-4.22,0a3.6,3.6,0,0,0,6.79,0c1.45-3.15,1.44-7.49,6.68-9,4.33-1.26,8,3.59,10.54,2.45a4.23,4.23,0,0,0,2.25-5.27C552.88,362.3,551.49,363.78,548.05,362.38Z"/><path class="cls-3" d="M559.1,383.58a3.21,3.21,0,0,1,4-.34,4.24,4.24,0,0,1,2.54,3.53s.22,5.42-5.65,11c-4.52,4.27-11.26,4.92-13.74,4.26-3.86-1-4.51-5.38,0-6.35,3.38-.74,6.37-.66,10-4.73C558.4,388.41,558.39,385.08,559.1,383.58Z"/><path class="cls-4" d="M557.65,395.94c-5.95,4.5-9.6,4-11.82,3.5s-2.2-2.7-1.25-3.18c-2.62,1.55-1.68,4.86,1.63,5.74,2.48.66,9.22,0,13.74-4.26,5.87-5.55,5.65-11,5.65-11a4.24,4.24,0,0,0-2.54-3.53C564.18,384.7,564,391.11,557.65,395.94Z"/><path class="cls-3" d="M553.32,368.17a6.11,6.11,0,0,1,5.57,3.07c2.93,4.44-.52,6.31-.52,6.31-2.28.27-5.17-1.16-9.82.69-5.79,2.29-6.45,6.69-7.8,10.17-1.5,3.85-7.42,1.76-6.45-4.25s3.44-9.9,7.37-12.44A22.14,22.14,0,0,1,553.32,368.17Z"/><path class="cls-4" d="M555.23,374c-4.09-.22-10.16.4-12.91,4.8-1.85,3-2.31,7.11-3.92,8.33-2,1.52-3.77,0-4.19-1.6.09,4.9,5.17,6.37,6.54,2.84s2-7.88,7.8-10.17c4.65-1.85,7.54-.42,9.82-.69,0,0,3.14-1.72.85-5.76C559.86,373.28,559.29,374.26,555.23,374Z"/><path class="cls-3" d="M451.12,507.16h0a9.18,9.18,0,1,0-13.89,12h0L495.84,587l13.91-12Z"/><path class="cls-5" d="M460.14,517.59a9.18,9.18,0,1,0-13.9,12"/><path class="cls-5" d="M470.09,529.11a9.18,9.18,0,1,0-13.89,12"/><path class="cls-5" d="M480.05,540.63a9.18,9.18,0,1,0-13.9,12"/><path class="cls-5" d="M490,552.15a9.18,9.18,0,1,0-13.89,12"/><path class="cls-5" d="M486.06,575.68a9.18,9.18,0,1,1,13.9-12"/><path class="cls-4" d="M444.16,504a9.2,9.2,0,0,0-9.19,9.19,9.1,9.1,0,0,0,2.25,6h0L495.84,587l5.78-5c-17.91-20.06-47-52.6-54.79-61.5C435.28,507.38,440,505,444.16,504Z"/><path class="cls-6" d="M603.76,584.25s-17.16-15-30.9-5.19a103.5,103.5,0,0,0-22,21.37l-37-32.74h0c-2.28-2-6.26-2-10.19.24-6.88,4-12.45,13.63-12.45,21.56a10.6,10.6,0,0,0,1.71,6.26v0s40.71,56.93,47.64,65.74S556.24,675,568,669.59s15.33-20.8,16.73-31.21,14.75-25,18.3-34.36C606.86,593.84,606,587.69,603.76,584.25Z"/><path class="cls-4" d="M590.39,580.14c-6.56.54-22.3,8.68-26.9,26a144.59,144.59,0,0,1-6.42,19.46,45.5,45.5,0,0,1-8.66,12.88c-5.43,5.76-11.92,1.83-17.56-2.83s-21.52-25.58-27-34.58c-3.93-6.52-5.17-11.45-4.09-16.19.37.49.74,1,1.13,1.39,5.28,5.88,15.39,10.69,23.11,4.81,3.75-2.86,4.06-7.37,2.82-11.84l-13.05-11.53c-2.28-2-6.26-2-10.19.24-.41.24-.81.5-1.21.77-.14.09-.27.2-.41.3s-.51.37-.76.57l-.48.41c-.22.18-.43.37-.64.56l-.52.49-.56.56c-.18.18-.35.37-.53.56l-.49.56-.54.64-.42.54-.54.72c-.12.15-.22.32-.34.48-3,4.37-5,9.69-5,14.4a10.6,10.6,0,0,0,1.71,6.26v0s40.71,56.93,47.64,65.74S556.24,675,568,669.59s15.33-20.8,16.73-31.21c1-7.69,8.58-17.67,13.89-26.12Z"/><path class="cls-3" d="M603,604c3.86-10.18,3-16.33.76-19.77a41.77,41.77,0,0,0-7.25-4.82c-9.46-1.22-21.08,9.89-25.38,17s-6.61,15.71-9.71,27.17c-2.75,10.17-9.65,15.85-13.56,25.41-2.85,6.94-3.48,12.29-1.58,18.39,5.9,4.65,13,6.18,21.69,2.19,11.74-5.38,15.33-20.8,16.73-31.21S599.45,613.36,603,604Z"/><path class="cls-1" d="M573.86,600.43c-6.14,10.89-7.34,26-12.5,34.81s-13,18.6-12.1,27.07c.59,5.54,2.52,8.44,6.16,9.31a18.28,18.28,0,0,0,5.91,0l.8-.14a25.3,25.3,0,0,0,5.84-1.91c11.74-5.38,15.33-20.8,16.73-31.21s14.75-25,18.3-34.36c3.86-10.18,3-16.33.76-19.77C596.29,579.42,582,586.05,573.86,600.43Z"/><path class="cls-4" d="M548.41,598.28c-8.19,7.84-10.39,19.86-10.39,19.86a183,183,0,0,1,12.82-17.71Z"/><path class="cls-2" d="M564.41,628.23c-.22.65-.45,1.28-.68,1.91l25.58-3.26c.37-.65.75-1.31,1.15-2Z"/><path class="cls-2" d="M560,637.45l-1.23,2,26.39-3.36q.25-.93.6-1.89Z"/><path class="cls-2" d="M550.15,666.49l25.73-3.27c.51-.64,1-1.31,1.44-2l-27.66,3.52A15.2,15.2,0,0,0,550.15,666.49Z"/><path class="cls-2" d="M550,656c-.19.63-.33,1.26-.46,1.88l31.5-4c.24-.63.46-1.27.67-1.9Z"/><path class="cls-2" d="M554.2,646.84c-.38.66-.75,1.31-1.1,2l30.48-3.87c.14-.63.26-1.25.37-1.87Z"/><path class="cls-2" d="M580.53,591.55c-.64.65-1.27,1.34-1.89,2.06l27-3.43a15.81,15.81,0,0,0-.24-1.79Z"/><path class="cls-2" d="M573.51,601.1c-.34.63-.67,1.28-1,1.94L604.62,599c.17-.64.32-1.27.44-1.87Z"/><path class="cls-2" d="M569.71,610.24c-.21.63-.41,1.26-.6,1.9l32-4.07c.36-.67.7-1.32,1-2Z"/><path class="cls-2" d="M567.07,619.23c-.17.63-.34,1.26-.52,1.89l28.66-3.65c.44-.66.87-1.33,1.3-2Z"/><path class="cls-6" d="M501,559.86c-8.49,5.85-4.3,18.17,1,24s15.39,10.69,23.11,4.82c7.08-5.39,2-16.66-2.81-22.41C517.31,560.28,507.72,555.24,501,559.86Z"/><path class="cls-7" d="M501,559.86c-8.49,5.85-4.3,18.17,1,24s15.39,10.69,23.11,4.82c7.08-5.39,2-16.66-2.81-22.41C517.31,560.28,507.72,555.24,501,559.86Z"/><path class="cls-6" d="M528.58,581.29c-.59,4.17-7,9.6-17.76,1.26-11-8.52-11-20.82-7.48-23.86a9.73,9.73,0,0,0-2.32,1.17c-8.49,5.85-4.3,18.17,1,24s15.39,10.69,23.11,4.82A8.88,8.88,0,0,0,528.58,581.29Z"/><path class="cls-8" d="M528.58,581.29c-.59,4.17-7,9.6-17.76,1.26-11-8.52-11-20.82-7.48-23.86a9.73,9.73,0,0,0-2.32,1.17c-8.49,5.85-4.3,18.17,1,24s15.39,10.69,23.11,4.82A8.88,8.88,0,0,0,528.58,581.29Z"/><path class="cls-3" d="M418.16,363.26v-37.5H395.24v37.5h0c0,1.69,1.12,3.39,3.36,4.68,4.47,2.58,11.73,2.58,16.21,0C417,366.65,418.16,365,418.16,363.26Z"/><path class="cls-10" d="M395.24,356.07c0,1.7,1.12,3.39,3.36,4.68,4.47,2.59,11.73,2.59,16.21,0,2.23-1.29,3.35-3,3.35-4.68"/><path class="cls-10" d="M395.24,348.89c0,1.69,1.12,3.38,3.36,4.68,4.47,2.58,11.73,2.58,16.21,0,2.23-1.3,3.35-3,3.35-4.68"/><path class="cls-10" d="M395.24,341.7c0,1.69,1.12,3.39,3.36,4.68,4.47,2.58,11.73,2.58,16.21,0,2.23-1.29,3.35-3,3.35-4.68"/><path class="cls-4" d="M400.18,325.76h-4.94v37.5c0,1.69,1.12,3.39,3.36,4.68a14.39,14.39,0,0,0,1.58.75V344.15a68.66,68.66,0,0,0,18,1.6v-20Z"/><path class="cls-6" d="M359.25,271.09c0-28.39,23-46.74,51.41-46.74s51.4,18.35,51.4,46.74v31.08s-10.24,16.08-51.4,16.08-51.41-15.34-51.41-15.34Z"/><path class="cls-16" d="M418.83,234.29A5.3,5.3,0,0,0,416,237.2a4,4,0,0,0,1.2,3.72,10.93,10.93,0,0,0,3.48,2.11,117.38,117.38,0,0,0,21,7c1.8.42,5.33,1.67,6.66,0,1.59-2,.62-6.16-1.44-8.75-4.12-5.18-7.32-6.89-12.19-8.28A21.4,21.4,0,0,0,418.83,234.29Z"/><path class="cls-17" d="M462.06,282.6s-2.88,15.55-23.25,23.16-42.48,5.17-56,1.78c0,0,28.92,14.1,58.79.56C467.75,296.25,462.06,282.6,462.06,282.6Z"/><path class="cls-4" d="M428.43,226.93a60.93,60.93,0,0,0-17.77-2.58c-28.39,0-51.41,18.35-51.41,46.74v31.82s4.21,6.27,18,10.8c-2.16-20.66-4.92-47,3.3-63.15C389.94,232.13,416.08,223.34,428.43,226.93Z"/><path class="cls-1" d="M409.09,292.2h0a7.62,7.62,0,0,1-7.62-7.62V281a7.62,7.62,0,0,1,7.62-7.62h0a7.62,7.62,0,0,1,7.62,7.62v3.54A7.62,7.62,0,0,1,409.09,292.2Z"/><path class="cls-1" d="M447.41,280h0c-3.62,1.35-5.54-.34-6.23-2.21a20.15,20.15,0,0,1-.47-7.61,9.89,9.89,0,0,1,5.46-8.22h0a4.33,4.33,0,0,1,6.45,2.51,21.62,21.62,0,0,1,.38,6.85C452.79,274.19,451,278.41,447.41,280Z"/><path class="cls-6" d="M467.37,280.61a8.8,8.8,0,0,0-5.31-2.64v4.63c0,7.59-5,15.19-15.06,21-17.43,10.07-44.27,11.38-64.18,4v-1.61c0-6-4.22-13.31-9.42-16.31s-9.41-.57-9.41,5.43a19.84,19.84,0,0,1-4.74-12.45c-1.75,0-4.08.94-4.08,7.64,0,8.34-.41,17.68,7.5,28,12.76,16.68,46.35,31.39,75.25,19.86,30.81-12.31,31-35.38,31-44.77C468.89,286.43,469.45,283,467.37,280.61Z"/><path class="cls-9" d="M467.37,280.61a8.8,8.8,0,0,0-5.31-2.64v4.63c0,7.59-5,15.19-15.06,21-17.43,10.07-44.27,11.38-64.18,4v-1.61c0-6-4.22-13.31-9.42-16.31s-9.41-.57-9.41,5.43a19.84,19.84,0,0,1-4.74-12.45c-1.75,0-4.08.94-4.08,7.64,0,8.34-.41,17.68,7.5,28,12.76,16.68,46.35,31.39,75.25,19.86,30.81-12.31,31-35.38,31-44.77C468.89,286.43,469.45,283,467.37,280.61Z"/><path class="cls-4" d="M420.14,339.86c-34-.52-50.4-18.2-54.71-26.15s-3.91-16.1-1.44-15v-3.61a19.84,19.84,0,0,1-4.74-12.45c-1.75,0-4.08.94-4.08,7.64,0,8.34-.41,17.68,7.5,28,12.76,16.68,46.35,31.39,75.25,19.86,8.45-3.38,14.59-7.57,19.06-12.07C449.15,332,436.54,340.11,420.14,339.86Z"/><path class="cls-17" d="M374.88,290.62c3.23,2.5,5.66,7.83,5.66,18.24l2.28-1.32v-1.61C382.82,300.51,379.38,294,374.88,290.62Z"/><path class="cls-6" d="M462.06,282.6c0,7.59-5,15.19-15.06,21-17.43,10.07-44.27,11.38-64.18,4l-2.28,1.32s27.83,15.27,59.24,2.88c29.31-11.55,28.69-27.16,27.59-31.13a8.8,8.8,0,0,0-5.31-2.64Z"/><path class="cls-18" d="M462.06,282.6c0,7.59-5,15.19-15.06,21-17.43,10.07-44.27,11.38-64.18,4l-2.28,1.32s27.83,15.27,59.24,2.88c29.31-11.55,28.69-27.16,27.59-31.13a8.8,8.8,0,0,0-5.31-2.64Z"/><path class="cls-1" d="M372.05,294.79a8.6,8.6,0,0,1,3.89,6.74c0,2.48-1.74,3.48-3.89,2.24a8.58,8.58,0,0,1-3.89-6.73C368.16,294.56,369.9,293.55,372.05,294.79Z"/><path class="cls-3" d="M372.05,294.79a3.36,3.36,0,0,0-1.91-.5,3.22,3.22,0,0,0-.61,2,8.6,8.6,0,0,0,3.89,6.74,3.36,3.36,0,0,0,1.91.5,3.22,3.22,0,0,0,.61-2A8.6,8.6,0,0,0,372.05,294.79Z"/><path class="cls-6" d="M364,295.05a19.84,19.84,0,0,1-4.74-12.45,3.18,3.18,0,0,0-2.32.88c-.69,1.71-.87,4.24.55,7.66a15.63,15.63,0,0,0,6.51,7.52A20.75,20.75,0,0,1,364,295.05Z"/><path class="cls-14" d="M364,295.05a19.84,19.84,0,0,1-4.74-12.45,3.18,3.18,0,0,0-2.32.88c-.69,1.71-.87,4.24.55,7.66a15.63,15.63,0,0,0,6.51,7.52A20.75,20.75,0,0,1,364,295.05Z"/><path class="cls-3" d="M404.82,234.5V206.9h-6.7v27.6h0a1.65,1.65,0,0,0,1,1.37,5.21,5.21,0,0,0,4.74,0A1.67,1.67,0,0,0,404.82,234.5Z"/><path class="cls-4" d="M398.12,211.63a12.3,12.3,0,0,0,6.7,0v-4.7h-6.7Z"/><circle class="cls-6" cx="401.41" cy="196.62" r="12.45"/><path class="cls-4" d="M401.41,203.14c-9-1.59-12.07-9.56-8.1-16a12.45,12.45,0,1,0,20.55,9.44C413.33,200.52,409.37,204.55,401.41,203.14Z"/><path class="cls-19" d="M400.93,192.43a18.82,18.82,0,0,1,5.49,2.6c1.05.73,2.73,1.81,3.94.72,1.05-.95.88-3.12.43-4.29a8,8,0,0,0-3.22-3.75,8.39,8.39,0,0,0-5.91-1.09c-1.3.24-3.4.88-3.74,2.37C397.53,190.68,399.55,192,400.93,192.43Z"/><path class="cls-20" d="M401.47,175.45a1.53,1.53,0,0,1-1.54-1.53V163.18a1.54,1.54,0,0,1,3.07,0v10.74A1.53,1.53,0,0,1,401.47,175.45Z"/><path class="cls-20" d="M412.81,178.52a1.53,1.53,0,0,1-.77-.2,1.55,1.55,0,0,1-.56-2.1l5.37-9.3a1.53,1.53,0,0,1,2.66,1.53l-5.37,9.31A1.54,1.54,0,0,1,412.81,178.52Z"/><path class="cls-20" d="M421.1,186.85a1.53,1.53,0,0,1-1.33-.76,1.55,1.55,0,0,1,.56-2.1l9.3-5.37a1.53,1.53,0,1,1,1.53,2.66l-9.3,5.37A1.49,1.49,0,0,1,421.1,186.85Z"/><path class="cls-20" d="M434.85,198.21H424.11a1.53,1.53,0,0,1,0-3.06h10.74a1.53,1.53,0,0,1,0,3.06Z"/><path class="cls-20" d="M430.34,214.92a1.55,1.55,0,0,1-.77-.2l-9.3-5.37a1.53,1.53,0,0,1,1.53-2.66l9.31,5.37a1.53,1.53,0,0,1-.77,2.86Z"/><path class="cls-20" d="M372.42,214.82a1.53,1.53,0,0,1-.77-2.86l9.3-5.37a1.54,1.54,0,1,1,1.54,2.66l-9.31,5.37A1.49,1.49,0,0,1,372.42,214.82Z"/><path class="cls-20" d="M378.71,198.1H368a1.54,1.54,0,1,1,0-3.07h10.74a1.54,1.54,0,0,1,0,3.07Z"/><path class="cls-20" d="M381.78,186.75a1.53,1.53,0,0,1-.77-.2l-9.3-5.37a1.53,1.53,0,0,1,1.53-2.66l9.3,5.37a1.53,1.53,0,0,1,.56,2.1A1.51,1.51,0,0,1,381.78,186.75Z"/><path class="cls-20" d="M390.11,178.46a1.53,1.53,0,0,1-1.33-.76l-5.37-9.3a1.53,1.53,0,1,1,2.65-1.54l5.38,9.31a1.53,1.53,0,0,1-.57,2.09A1.49,1.49,0,0,1,390.11,178.46Z"/></g><g id="_404" data-name="404"><g id="Shadow"><path class="cls-20" d="M277.78,176.24l4.93-2.85v-9.57Z"/></g><g id="_404-2" data-name="404"><path class="cls-6" d="M171.45,257.5a1.54,1.54,0,0,0-.36-.27l-10.92-6.31V199.14a3.56,3.56,0,0,0-.86-2.65,2,2,0,0,0-.35-.26l-11.67-6.74a1.61,1.61,0,0,0-1.72.1L129.34,199a7.47,7.47,0,0,0-2.21,1.85,16,16,0,0,0-1.77,3.42l-32.14,81a21.82,21.82,0,0,0-1.4,7.92v17.54a3.51,3.51,0,0,0,.86,2.65,2.2,2.2,0,0,0,.36.28c.5.27,11.56,6.67,11.68,6.74a1.59,1.59,0,0,0,1.69-.12l22.18-12.8v3.38a3.54,3.54,0,0,0,.86,2.65,2,2,0,0,0,.34.26l11.69,6.75a1.61,1.61,0,0,0,1.7-.12l14.08-8.13a5.47,5.47,0,0,0,2.05-2.5,8.54,8.54,0,0,0,.86-3.64V289.18l9.24-5.34a5.43,5.43,0,0,0,2-2.51,8.33,8.33,0,0,0,.86-3.64V260.15A3.54,3.54,0,0,0,171.45,257.5Z"/><path class="cls-4" d="M138.75,207.55l-.06.2a17,17,0,0,0-1.64,3.24l-32.14,81a18.35,18.35,0,0,0-1,3.32l-11.77-6.79a20.63,20.63,0,0,1,.93-3.28l32.14-81a15,15,0,0,1,1.79-3.42s0,0,0,0Z"/><path class="cls-21" d="M104.58,320.24c-1.32-.76-11.07-6.39-11.54-6.65a1.84,1.84,0,0,1-.36-.28,3.51,3.51,0,0,1-.87-2.65V293.13a23.7,23.7,0,0,1,.47-4.61L104,295.27a22.9,22.9,0,0,0-.44,4.61v17.54a3.57,3.57,0,0,0,.84,2.64Z"/><polygon class="cls-21" points="140.82 243.42 140.82 273.87 130.97 268.19 140.82 243.42"/><polygon class="cls-22" points="140.82 273.87 125.12 282.92 130.97 268.19 140.82 273.87"/><path class="cls-21" d="M141.14,320.19l.2.17-11.54-6.65a1.31,1.31,0,0,1-.35-.27,3.52,3.52,0,0,1-.86-2.65v-3.38l11.68-6.75v16.88A3.52,3.52,0,0,0,141.14,320.19Z"/><path class="cls-4" d="M171,257.16a1.65,1.65,0,0,0-1.54.19l-9.26,5.34V250.93S169.68,256.41,171,257.16Z"/><path class="cls-23" d="M158.88,196.18a1.66,1.66,0,0,0-1.62.16L141,205.71a7.76,7.76,0,0,0-2.21,1.84l-11.68-6.75a7.61,7.61,0,0,1,2.18-1.84l16.24-9.37a1.6,1.6,0,0,1,1.71-.1Z"/><path class="cls-6" d="M143.18,320.33a1.55,1.55,0,0,1-2-.14,3.52,3.52,0,0,1-.86-2.65V300.66l-33.87,19.55a1.55,1.55,0,0,1-2-.15,3.54,3.54,0,0,1-.86-2.64V299.87a21.82,21.82,0,0,1,1.4-7.92l32.14-81a15.69,15.69,0,0,1,1.78-3.42,7.3,7.3,0,0,1,2.2-1.85l16.23-9.38a1.58,1.58,0,0,1,2.05.15,3.56,3.56,0,0,1,.85,2.65v63.55l9.25-5.33a1.55,1.55,0,0,1,2,.14,3.54,3.54,0,0,1,.86,2.65v17.54a8.33,8.33,0,0,1-.86,3.64,5.43,5.43,0,0,1-2,2.51l-9.25,5.34v16.88a8.52,8.52,0,0,1-.85,3.64,5.47,5.47,0,0,1-2.05,2.5Zm-2.37-46.47V243.41l-15.69,39.52Z"/><path class="cls-6" d="M246.81,187.84a73.12,73.12,0,0,0-2.2-15.86q-1.89-7.09-5.7-11a13.93,13.93,0,0,0-2.93-2.31l-11.72-6.76A14.32,14.32,0,0,0,217.6,150q-5.81-.3-13.87,4.36A50.9,50.9,0,0,0,189.86,166a68.49,68.49,0,0,0-9.62,15.32,80.53,80.53,0,0,0-5.7,17.6,112.44,112.44,0,0,0-2.2,18.41q-.22,7.24-.22,15t.22,14.44a72.51,72.51,0,0,0,2.2,15.86c1.25,4.74,3.16,8.41,5.7,11a13.77,13.77,0,0,0,2.91,2.3c2,1.15,10.77,6.23,11.9,6.87a14.4,14.4,0,0,0,6.5,1.79q5.8.3,13.87-4.36a51.05,51.05,0,0,0,13.87-11.65,68.49,68.49,0,0,0,9.62-15.32,80.89,80.89,0,0,0,5.7-17.6,113.54,113.54,0,0,0,2.2-18.41q.21-6.9.21-14.68T246.81,187.84Zm-42.48,58.82a50.4,50.4,0,0,1-.41-5.42q-.54-13.76,0-27.81a57.28,57.28,0,0,1,.75-8,36.79,36.79,0,0,1,1.93-7.16,23.27,23.27,0,0,1,3.45-6,18.14,18.14,0,0,1,4.67-4.15c.23,1.64.41,3.42.51,5.36q.44,13.5,0,27.81a63.48,63.48,0,0,1-.7,8,32.39,32.39,0,0,1-1.93,7.15,24.77,24.77,0,0,1-3.5,6.07A18.12,18.12,0,0,1,204.33,246.66Z"/><path class="cls-4" d="M194.73,282.67c-1.94-1.11-9.76-5.62-11.58-6.68a14.15,14.15,0,0,1-2.91-2.31q-3.83-3.92-5.7-11a72.43,72.43,0,0,1-2.2-15.86c-.15-4.45-.22-9.25-.22-14.44s.07-10.2.22-15a112.44,112.44,0,0,1,2.2-18.41,79.31,79.31,0,0,1,3.63-12.59l11.67,6.76a80.49,80.49,0,0,0-3.6,12.58A110.33,110.33,0,0,0,184,224.09q-.22,7.23-.22,15c0,5.19.07,10,.22,14.44a71.22,71.22,0,0,0,2.21,15.86c1.24,4.74,3.15,8.42,5.69,11A14.13,14.13,0,0,0,194.73,282.67Z"/><path class="cls-23" d="M235.53,158.4a15,15,0,0,0-6.24-1.65q-5.81-.28-13.88,4.36a51.34,51.34,0,0,0-13.86,11.66,68.2,68.2,0,0,0-9.62,15.31c-.39.83-.75,1.68-1.11,2.55s-.65,1.64-1,2.47h0l-11.67-6.76c.27-.74.56-1.47.86-2.19.39-1,.78-1.88,1.21-2.82A70.08,70.08,0,0,1,189.85,166a51.57,51.57,0,0,1,13.88-11.64c5.37-3.11,10-4.55,13.87-4.36a14.63,14.63,0,0,1,6.67,1.88C225.27,152.47,233,156.89,235.53,158.4Z"/><path class="cls-21" d="M226.93,228a63.61,63.61,0,0,1-.71,8,32,32,0,0,1-1.93,7.15,23,23,0,0,1-1.33,2.79l-11.69-6.75a26.41,26.41,0,0,0,1.32-2.79,33.12,33.12,0,0,0,1.95-7.15,65.6,65.6,0,0,0,.69-8q.42-14.31,0-27.8c-.1-1.95-.28-3.73-.51-5.37,0,0,.31-.22.69-.45A9,9,0,0,1,220.8,186a4.79,4.79,0,0,1,3.44,2.07,12.68,12.68,0,0,1,1.88,4.95,56.65,56.65,0,0,1,.81,7.16Q227.33,213.65,226.93,228Z"/><path class="cls-22" d="M223,245.92a23.83,23.83,0,0,1-2.16,3.28,18.26,18.26,0,0,1-5.39,4.59c-2.14,1.26-3.92,1.79-5.36,1.62a4.89,4.89,0,0,1-3.5-2,11.88,11.88,0,0,1-1.93-4.93c-.11-.57-.2-1.17-.29-1.79a18.3,18.3,0,0,0,4.77-4.21,23,23,0,0,0,2.17-3.28Z"/><path class="cls-6" d="M215.42,161.11q8.06-4.65,13.87-4.36a13.88,13.88,0,0,1,9.62,4.21q3.81,3.91,5.7,11a73.12,73.12,0,0,1,2.2,15.86q.21,7,.21,14.78t-.21,14.68a113.54,113.54,0,0,1-2.2,18.41,80.89,80.89,0,0,1-5.7,17.6,68.49,68.49,0,0,1-9.62,15.32,51.05,51.05,0,0,1-13.87,11.65q-8.07,4.65-13.87,4.36a13.85,13.85,0,0,1-9.62-4.21q-3.81-3.92-5.7-11a72.51,72.51,0,0,1-2.2-15.86q-.22-6.66-.22-14.44t.22-15a112.32,112.32,0,0,1,2.2-18.4,81,81,0,0,1,5.7-17.61,68.85,68.85,0,0,1,9.62-15.32A50.9,50.9,0,0,1,215.42,161.11ZM226.92,228q.44-14.31,0-27.81a55.22,55.22,0,0,0-.8-7.15,12.74,12.74,0,0,0-1.89-4.95,4.74,4.74,0,0,0-3.44-2.07q-2.14-.25-5.37,1.61a18.83,18.83,0,0,0-5.38,4.6,23.53,23.53,0,0,0-3.44,6,36.79,36.79,0,0,0-1.93,7.16,57.28,57.28,0,0,0-.75,8q-.54,14.06,0,27.81a44.83,44.83,0,0,0,.7,7.21,11.64,11.64,0,0,0,1.93,4.92,4.89,4.89,0,0,0,3.49,2q2.16.26,5.38-1.61a18.35,18.35,0,0,0,5.37-4.6,24.28,24.28,0,0,0,3.5-6.07,32.39,32.39,0,0,0,1.93-7.15A61.68,61.68,0,0,0,226.92,228Z"/><path class="cls-6" d="M329.3,166.37a2.11,2.11,0,0,0-.36-.27L318,159.79V108a3.55,3.55,0,0,0-.86-2.65,1.73,1.73,0,0,0-.35-.27l-11.67-6.74a1.62,1.62,0,0,0-1.71.11l-16.24,9.37a7.45,7.45,0,0,0-2.2,1.86,14.87,14.87,0,0,0-1.77,3.42l-32.15,81a21.82,21.82,0,0,0-1.39,7.92v17.54a3.54,3.54,0,0,0,.85,2.65,2.4,2.4,0,0,0,.37.28c.49.27,11.55,6.67,11.67,6.74a1.65,1.65,0,0,0,1.7-.12l22.17-12.8v3.38a3.54,3.54,0,0,0,.86,2.64,1.73,1.73,0,0,0,.35.27l11.69,6.75a1.61,1.61,0,0,0,1.7-.12l14.08-8.13a5.46,5.46,0,0,0,2-2.5,8.55,8.55,0,0,0,.86-3.65V198l9.25-5.33a5.55,5.55,0,0,0,2-2.51,8.47,8.47,0,0,0,.86-3.64V169A3.55,3.55,0,0,0,329.3,166.37Z"/><path class="cls-4" d="M296.59,116.42l0,.2a16.37,16.37,0,0,0-1.65,3.24l-32.13,81a17.58,17.58,0,0,0-.95,3.32L250,197.35a20.65,20.65,0,0,1,.94-3.28l32.14-81a15.45,15.45,0,0,1,1.78-3.42,0,0,0,0,1,0,0Z"/><path class="cls-21" d="M262.43,229.11c-1.33-.76-11.07-6.39-11.55-6.65a2.18,2.18,0,0,1-.36-.29,3.51,3.51,0,0,1-.86-2.64V202a23.62,23.62,0,0,1,.46-4.61l11.69,6.75a22.05,22.05,0,0,0-.45,4.61v17.54a3.53,3.53,0,0,0,.85,2.63A1.3,1.3,0,0,0,262.43,229.11Z"/><polygon class="cls-21" points="298.67 152.29 298.67 182.74 288.82 177.06 298.67 152.29"/><polygon class="cls-22" points="298.67 182.74 282.96 191.79 288.82 177.06 298.67 182.74"/><path class="cls-21" d="M299,229.05l.2.18-11.54-6.65a1.13,1.13,0,0,1-.34-.28,3.5,3.5,0,0,1-.87-2.64v-3.39l11.69-6.75v16.89A3.54,3.54,0,0,0,299,229.05Z"/><path class="cls-4" d="M328.8,166a1.65,1.65,0,0,0-1.54.19L318,171.56V159.8S327.52,165.28,328.8,166Z"/><path class="cls-23" d="M316.73,105.05a1.65,1.65,0,0,0-1.63.16l-16.22,9.37a7.85,7.85,0,0,0-2.2,1.84L285,109.67a7.8,7.8,0,0,1,2.19-1.84l16.23-9.37a1.61,1.61,0,0,1,1.72-.1Z"/><path class="cls-6" d="M301,229.2a1.55,1.55,0,0,1-2-.15,3.54,3.54,0,0,1-.86-2.64V209.52l-33.86,19.56a1.56,1.56,0,0,1-2-.15,3.51,3.51,0,0,1-.86-2.65V208.74a21.82,21.82,0,0,1,1.39-7.92l32.15-81a15.28,15.28,0,0,1,1.77-3.42,7.37,7.37,0,0,1,2.21-1.86l16.23-9.37a1.56,1.56,0,0,1,2,.15A3.55,3.55,0,0,1,318,108v63.55l9.25-5.34a1.57,1.57,0,0,1,2,.15,3.55,3.55,0,0,1,.86,2.65v17.54a8.47,8.47,0,0,1-.86,3.64,5.55,5.55,0,0,1-2,2.51L318,198v16.88a8.55,8.55,0,0,1-.86,3.65,5.46,5.46,0,0,1-2,2.5Zm-2.37-46.47V152.28L283,191.8Z"/></g><path class="cls-24" d="M178.65,342.93a.45.45,0,0,1,.59,0,1,1,0,0,1,.24.76v5a2.5,2.5,0,0,1-.24,1,1.49,1.49,0,0,1-.59.71l-14.58,8.43a.44.44,0,0,1-.58-.05,1,1,0,0,1-.25-.75v-30.6a2.31,2.31,0,0,1,.25-1,1.5,1.5,0,0,1,.58-.72l14.34-8.28a.45.45,0,0,1,.58,0,1,1,0,0,1,.25.76v5a2.31,2.31,0,0,1-.25,1,1.56,1.56,0,0,1-.58.72l-9.48,5.47v5.12l8.8-5.08a.44.44,0,0,1,.58,0,1,1,0,0,1,.25.76v5a2.34,2.34,0,0,1-.25,1,1.55,1.55,0,0,1-.58.72l-8.8,5.07v5.31Z"/><path class="cls-24" d="M193,309.09a10.91,10.91,0,0,1,3.63-1.43,3.94,3.94,0,0,1,2.72.42,4.3,4.3,0,0,1,1.72,2.39,13.76,13.76,0,0,1,.6,4.46,20.71,20.71,0,0,1-.95,6.45,16.93,16.93,0,0,1-2.71,5.14l3.81,9.07a1.09,1.09,0,0,1,.1.46,2.07,2.07,0,0,1-.2.86,1.3,1.3,0,0,1-.48.58L197,339.9c-.41.24-.7.27-.88.08a2.25,2.25,0,0,1-.41-.61l-3.42-8.16-2.83,1.63V343a2.5,2.5,0,0,1-.24,1,1.66,1.66,0,0,1-.59.71l-4,2.33a.44.44,0,0,1-.58,0,1,1,0,0,1-.25-.76v-30.6a2.37,2.37,0,0,1,.25-1,1.55,1.55,0,0,1,.58-.72Zm-3.48,16.36,3.48-2a6.46,6.46,0,0,0,2.14-2,5.68,5.68,0,0,0,.84-3.23c0-1.33-.28-2.08-.84-2.26a2.76,2.76,0,0,0-2.14.47l-3.48,2Z"/><path class="cls-24" d="M215.11,296.3a10.91,10.91,0,0,1,3.63-1.43,3.94,3.94,0,0,1,2.72.42,4.3,4.3,0,0,1,1.72,2.39,13.76,13.76,0,0,1,.6,4.46,20.71,20.71,0,0,1-.95,6.45,16.93,16.93,0,0,1-2.71,5.14l3.82,9.07a1.27,1.27,0,0,1,.09.47,2.07,2.07,0,0,1-.2.85,1.24,1.24,0,0,1-.48.58l-4.18,2.41c-.41.24-.7.27-.88.08a2.11,2.11,0,0,1-.41-.61l-3.42-8.16-2.83,1.63v10.14a2.37,2.37,0,0,1-.25,1,1.48,1.48,0,0,1-.58.71l-4,2.33a.44.44,0,0,1-.58,0,1,1,0,0,1-.25-.76V302.88a2.38,2.38,0,0,1,.25-1.05,1.47,1.47,0,0,1,.58-.71Zm-3.48,16.36,3.48-2a6.6,6.6,0,0,0,2.14-2,5.68,5.68,0,0,0,.84-3.23c0-1.33-.28-2.08-.84-2.26a2.76,2.76,0,0,0-2.14.47l-3.48,2Z"/><path class="cls-24" d="M227.38,301.58a26.87,26.87,0,0,1,.75-5.43A24.24,24.24,0,0,1,230,291a21.67,21.67,0,0,1,3-4.45,15.3,15.3,0,0,1,4-3.34,8.26,8.26,0,0,1,4-1.29,4.48,4.48,0,0,1,3,1,6.51,6.51,0,0,1,1.87,3,16.09,16.09,0,0,1,.76,4.57c0,1.33.06,2.74.06,4.22s0,2.89-.06,4.21a26.89,26.89,0,0,1-.76,5.43,24.79,24.79,0,0,1-1.87,5.18,20.63,20.63,0,0,1-3,4.46,15.55,15.55,0,0,1-4,3.3,8.42,8.42,0,0,1-4,1.33,4.37,4.37,0,0,1-3-1,6.77,6.77,0,0,1-1.88-3,16.1,16.1,0,0,1-.75-4.56c0-1.27-.06-2.65-.06-4.13S227.34,303,227.38,301.58Zm13.51.39c0-.57,0-1.22.06-1.93s0-1.42,0-2.14,0-1.43,0-2.09,0-1.27-.06-1.79a7.86,7.86,0,0,0-.33-2,3,3,0,0,0-.74-1.31,1.7,1.7,0,0,0-1.18-.47,3.28,3.28,0,0,0-1.66.53,6.18,6.18,0,0,0-1.66,1.39,8.41,8.41,0,0,0-1.19,1.84,10.67,10.67,0,0,0-.73,2.15,13.26,13.26,0,0,0-.33,2.37c0,.56-.06,1.18-.07,1.87s0,1.39,0,2.11,0,1.44,0,2.12,0,1.31.07,1.86a5.37,5.37,0,0,0,1.06,3.32q.94,1,2.85-.09a6.69,6.69,0,0,0,2.83-3.19A13.31,13.31,0,0,0,240.89,302Z"/><path class="cls-24" d="M260.11,270.32a11.31,11.31,0,0,1,3.64-1.44,3.94,3.94,0,0,1,2.72.42,4.3,4.3,0,0,1,1.72,2.39,13.87,13.87,0,0,1,.6,4.47,20.69,20.69,0,0,1-1,6.44,16.82,16.82,0,0,1-2.71,5.14l3.81,9.07a1.32,1.32,0,0,1,.1.47,1.9,1.9,0,0,1-.21.85,1.24,1.24,0,0,1-.47.58l-4.19,2.42c-.41.24-.7.26-.87.08a2.29,2.29,0,0,1-.42-.61l-3.41-8.17-2.83,1.64V304.2a2.44,2.44,0,0,1-.25,1,1.56,1.56,0,0,1-.58.72l-4,2.33a.46.46,0,0,1-.59,0,1,1,0,0,1-.24-.76v-30.6a2.5,2.5,0,0,1,.24-1,1.57,1.57,0,0,1,.59-.72Zm-3.47,16.36,3.47-2a6.37,6.37,0,0,0,2.14-2,5.61,5.61,0,0,0,.85-3.24c0-1.33-.28-2.08-.85-2.26a2.74,2.74,0,0,0-2.14.48l-3.47,2Z"/></g><g id="Speech_Bubble-2" data-name="Speech Bubble"><g id="Speech_Bubble-3" data-name="Speech Bubble"><path class="cls-6" d="M629.51,145.18,513.18,212.26a4.85,4.85,0,0,0-2.19,3.8v69.06a4.78,4.78,0,0,0,2.2,3.77l7.84,4.39a4.88,4.88,0,0,0,4.39,0l116.34-67.08a4.85,4.85,0,0,0,2.19-3.8v-69a4.81,4.81,0,0,0-2.2-3.78l-7.85-4.39A4.88,4.88,0,0,0,629.51,145.18Z"/><path class="cls-6" d="M523.23,292V222.94a4.82,4.82,0,0,1,2.19-3.79l116.34-67.09c1.21-.7,2.19-.13,2.19,1.27v69a4.85,4.85,0,0,1-2.19,3.8L525.42,293.26C524.21,294,523.23,293.39,523.23,292Z"/><path class="cls-17" d="M525.42,293.26a4.82,4.82,0,0,1-4.39,0l-7.84-4.41a4.77,4.77,0,0,1-2.21-3.76V216.05a4.58,4.58,0,0,1,.7-2.23l12.2,7a4.43,4.43,0,0,0-.65,2.16V292C523.23,293.27,524.13,294,525.42,293.26Z"/><path class="cls-23" d="M643.92,152.93c-.17-1.1-1.07-1.5-2.16-.87L525.43,219.15a4.43,4.43,0,0,0-1.55,1.63l-12.21-7a4.44,4.44,0,0,1,1.51-1.56l116.34-67.08a4.88,4.88,0,0,1,4.39,0l7.84,4.39A4.83,4.83,0,0,1,643.92,152.93Z"/><path class="cls-6" d="M511,246.17l-17.61,17.92a1.93,1.93,0,0,0,.33,3c.36.24,12.2,7,12.2,7l17.33-20.88Z"/><path class="cls-9" d="M511,246.17l-17.61,17.92a1.93,1.93,0,0,0,.33,3c.36.24,12.2,7,12.2,7l17.33-20.88Z"/><path class="cls-6" d="M523.23,253.22l-17.61,17.92a1.94,1.94,0,0,0,1.65,3.28l16-2.3C525,272.12,525,253.22,523.23,253.22Z"/></g><path class="cls-24" d="M534.77,241.43a30.46,30.46,0,0,1,.86-6.16,27.27,27.27,0,0,1,2.12-5.84,24.76,24.76,0,0,1,3.35-5.05,17.35,17.35,0,0,1,4.55-3.78,9.2,9.2,0,0,1,4.53-1.46,5,5,0,0,1,3.37,1.17,7.4,7.4,0,0,1,2.12,3.39,18.18,18.18,0,0,1,.86,5.17c0,1.51.07,3.11.07,4.79s0,3.27-.07,4.76a30.55,30.55,0,0,1-.86,6.16,28.71,28.71,0,0,1-2.12,5.87,23.29,23.29,0,0,1-3.37,5.05,17.63,17.63,0,0,1-4.53,3.75,9.58,9.58,0,0,1-4.55,1.5,4.92,4.92,0,0,1-3.35-1.18,7.59,7.59,0,0,1-2.12-3.42,18.18,18.18,0,0,1-.86-5.17c0-1.44-.07-3-.07-4.68S534.73,243,534.77,241.43Zm15.31.45c0-.66,0-1.39.07-2.19s0-1.61,0-2.44,0-1.61,0-2.37,0-1.43-.07-2a9.43,9.43,0,0,0-.37-2.26,3.44,3.44,0,0,0-.83-1.48,2,2,0,0,0-1.35-.54,3.73,3.73,0,0,0-1.88.61,6.93,6.93,0,0,0-1.88,1.57,9.35,9.35,0,0,0-1.35,2.09,12.09,12.09,0,0,0-.83,2.44,15.73,15.73,0,0,0-.37,2.68c0,.64-.07,1.34-.08,2.12s0,1.57,0,2.4,0,1.62,0,2.4,0,1.48.08,2.1a6,6,0,0,0,1.2,3.76c.71.77,1.79.74,3.23-.09a7.62,7.62,0,0,0,3.21-3.62A15.12,15.12,0,0,0,550.08,241.88Z"/><path class="cls-24" d="M578.74,223.61c0,.53,0,1.21,0,2s0,1.54,0,2.09A23.63,23.63,0,0,1,578,233a25,25,0,0,1-1.92,5,20.84,20.84,0,0,1-2.94,4.36,15.3,15.3,0,0,1-3.86,3.19,8.11,8.11,0,0,1-3.85,1.26,4.42,4.42,0,0,1-2.95-1,6.39,6.39,0,0,1-1.91-2.84,13.4,13.4,0,0,1-.77-4.38c0-.53,0-1.21,0-2s0-1.54,0-2.09a21.84,21.84,0,0,1,.73-5.25,24.73,24.73,0,0,1,1.94-5.06,21.87,21.87,0,0,1,3-4.4,15.36,15.36,0,0,1,3.85-3.22,7.89,7.89,0,0,1,3.86-1.23,4.65,4.65,0,0,1,3,1,6.29,6.29,0,0,1,1.92,2.83A14.22,14.22,0,0,1,578.74,223.61ZM566.05,234.8a3.45,3.45,0,0,0,1,2.64c.57.45,1.32.4,2.25-.14a5.84,5.84,0,0,0,2.25-2.45,9,9,0,0,0,1-3.75c0-.56.07-1.18.07-1.86s0-1.28-.07-1.79a3.46,3.46,0,0,0-1-2.64c-.57-.44-1.32-.39-2.25.14a5.87,5.87,0,0,0-2.25,2.46,9,9,0,0,0-1,3.74c0,.57-.07,1.19-.07,1.87S566,234.29,566.05,234.8Z"/><path class="cls-24" d="M593.31,231.73a5.34,5.34,0,0,1-1.78.71,3,3,0,0,1-1.32-.05,2.24,2.24,0,0,1-.94-.5,3.91,3.91,0,0,1-.63-.68v11.43a2.65,2.65,0,0,1-.28,1.18,1.74,1.74,0,0,1-.66.81l-4.39,2.54a.51.51,0,0,1-.67,0,1.16,1.16,0,0,1-.28-.85V211.05a2.83,2.83,0,0,1,.28-1.18,1.8,1.8,0,0,1,.67-.81l4.21-2.44a.51.51,0,0,1,.67,0,1.17,1.17,0,0,1,.27.86v1.23c.21-.48.44-1,.68-1.52a11,11,0,0,1,.91-1.57,10.3,10.3,0,0,1,3.26-2.93,6.75,6.75,0,0,1,3-1,3.29,3.29,0,0,1,2.45.84,6.54,6.54,0,0,1,1.69,2.87,17.74,17.74,0,0,1,.71,5.06c0,.52,0,1.24,0,2.15s0,1.65,0,2.19a27.86,27.86,0,0,1-.71,5.89,23.68,23.68,0,0,1-1.69,4.82,16.33,16.33,0,0,1-2.45,3.69A12,12,0,0,1,593.31,231.73Zm1.57-13.9a21.45,21.45,0,0,0,0-3,5.45,5.45,0,0,0-.8-2.81c-.47-.66-1.25-.68-2.34-.05a4.65,4.65,0,0,0-1.32,1.14,7.44,7.44,0,0,0-.93,1.53,10.29,10.29,0,0,0-.57,1.7,11.62,11.62,0,0,0-.28,1.72c0,.56-.07,1.2-.07,1.92s0,1.32.07,1.83a6.43,6.43,0,0,0,.28,1.4,3,3,0,0,0,.57,1,1.43,1.43,0,0,0,.93.46,2.38,2.38,0,0,0,1.32-.39,5.32,5.32,0,0,0,2.34-2.75A12.2,12.2,0,0,0,594.88,217.83Z"/><path class="cls-24" d="M615.07,210.26c0-.39-.09-.65-.26-.76a1.22,1.22,0,0,0-.89,0,16.38,16.38,0,0,0-1.66.53c-.69.25-1.54.53-2.56.84q-2.66.78-4.08-.65t-1.43-5.08a12.66,12.66,0,0,1,.59-3.73,17.81,17.81,0,0,1,1.66-3.69,17.38,17.38,0,0,1,2.56-3.33,15.34,15.34,0,0,1,3.35-2.61,9.52,9.52,0,0,1,3.34-1.26,5.58,5.58,0,0,1,2.66.19,3.47,3.47,0,0,1,1.76,1.4,4.72,4.72,0,0,1,.71,2.3,2.31,2.31,0,0,1-.26,1.17,1.92,1.92,0,0,1-.68.82l-4.15,2.4c-.26.14-.46.17-.61.08a4.45,4.45,0,0,0-.54-.28,2,2,0,0,0-.82-.12,3.51,3.51,0,0,0-1.41.55,4.76,4.76,0,0,0-1.34,1.12,2.23,2.23,0,0,0-.54,1.47,1.33,1.33,0,0,0,.17.81c.12.15.35.19.7.11a14.23,14.23,0,0,0,1.46-.44l2.48-.84q3.16-1,4.62.63a7.27,7.27,0,0,1,1.44,4.88,12.52,12.52,0,0,1-.59,3.75,17,17,0,0,1-1.74,3.8,19.61,19.61,0,0,1-2.79,3.52,18.14,18.14,0,0,1-3.73,2.85,10,10,0,0,1-3.68,1.4,4.92,4.92,0,0,1-2.67-.31,3.58,3.58,0,0,1-1.65-1.52,5,5,0,0,1-.65-2.25,2.31,2.31,0,0,1,.26-1.17,2,2,0,0,1,.68-.83l4.33-2.49c.25-.15.44-.16.55,0a2.27,2.27,0,0,0,.46.38,1.3,1.3,0,0,0,.8.18,3.59,3.59,0,0,0,1.57-.61,7.2,7.2,0,0,0,1.81-1.47A2.61,2.61,0,0,0,615.07,210.26Z"/><path class="cls-24" d="M631.14,196.36a2.65,2.65,0,0,1-.28,1.18,1.77,1.77,0,0,1-.66.82l-4.4,2.53a.51.51,0,0,1-.66,0,1.18,1.18,0,0,1-.28-.86V176.85a2.83,2.83,0,0,1,.28-1.18,1.85,1.85,0,0,1,.66-.81l4.4-2.54a.5.5,0,0,1,.66.05,1.13,1.13,0,0,1,.28.86Zm0,11.54a2.73,2.73,0,0,1-.28,1.19,1.79,1.79,0,0,1-.66.81l-4.4,2.53a.5.5,0,0,1-.66,0,1.18,1.18,0,0,1-.28-.86v-5.42a2.8,2.8,0,0,1,.28-1.18,1.83,1.83,0,0,1,.66-.82l4.4-2.53a.51.51,0,0,1,.66,0,1.14,1.14,0,0,1,.28.86Z"/></g><rect class="cls-25" width="784.4" height="784.4"/></g></g></svg>