<svg xmlns="http://www.w3.org/2000/svg" viewBox="0 0 200.28 189.81"><defs><style>.cls-1{fill:none;}.cls-2{fill:#fff;}</style></defs><g id="Capa_2" data-name="Capa 2"><g id="Capa_1-2" data-name="Capa 1"><rect class="cls-1" width="200.28" height="189.81" rx="10"/><path class="cls-2" d="M134.59,52.83l-6.24,6.69c-2.31-1.64-4.48-3.37-6.83-4.81a47.09,47.09,0,1,0,19.59,23.68A1.79,1.79,0,0,1,141.2,77c1.81-2.55,3.68-5.06,5.54-7.57a3.16,3.16,0,0,1,.38-.34c11.07,19.88,9.23,51.76-15.67,71.05s-60.3,14.8-79.86-10.32a56.71,56.71,0,0,1,9.41-79C84.73,31.64,116.75,35.88,134.59,52.83Z"/><path class="cls-2" d="M59.77,90.28a5.25,5.25,0,0,1,2-3.38c3.07-2.22,6.14-4.47,9.24-6.66a4,4,0,0,1,5.55.65C82.43,87,88.31,93.14,94.13,99.31c.9,1,1.44,1,2.34,0q16.26-16.89,32.58-33.73c7.27-7.51,14.51-15,21.85-22.47a41.43,41.43,0,0,1,5.34-4.24c1.75-1.26,3.26-1.49,3.9-.66,1,1.32,0,2.55-.6,3.56-3.4,5.45-6.7,11-10.43,16.19-6.92,9.66-14,19.19-21.2,28.65-10,13.24-20.22,26.36-30.35,39.53-.19.24-.37.5-.57.74-1.34,1.64-2.38,1.68-3.86.11L83.5,116.74c-7.36-7.85-14.74-15.68-22.06-23.57A14.93,14.93,0,0,1,59.77,90.28Z"/></g></g></svg>