<svg xmlns="http://www.w3.org/2000/svg" viewBox="0 0 200.28 189.81"><defs><style>.cls-1{fill:none;}.cls-2{fill:#fff;}</style></defs><g id="Capa_2" data-name="Capa 2"><g id="Capa_1-2" data-name="Capa 1"><rect class="cls-1" width="200.28" height="189.81" rx="10"/><path class="cls-2" d="M34.21,94.78c5.87-8.8,11.62-17.44,17.47-26.2L69.14,94.77h-.89c-3.06,0-6.12,0-9.18,0-.68,0-.86.19-.85.87A42.13,42.13,0,0,0,79.41,131.3,42.42,42.42,0,0,0,103,136.7a39.47,39.47,0,0,0,14.67-3.76,71.76,71.76,0,0,0,6.54-3.75,6.68,6.68,0,0,1,7.87.31,6.46,6.46,0,0,1-.11,10.19,45.16,45.16,0,0,1-8.65,5.07,54.48,54.48,0,0,1-32.47,4.31,54.07,54.07,0,0,1-13.67-4.25,55.11,55.11,0,0,1-29.57-33.73,50,50,0,0,1-2.35-13.67c0-.64-.12-1.27-.1-1.9s-.2-.75-.76-.74c-2.69,0-5.39,0-8.08,0Z"/><path class="cls-2" d="M166.07,95l-17.48,26.22L131.11,95h9.76c1.23,0,1.23,0,1.19-1.26a41.92,41.92,0,0,0-13.52-29.61,40.92,40.92,0,0,0-15.93-9.2A42.23,42.23,0,0,0,101.67,53a41.45,41.45,0,0,0-15.19,2.23,40.87,40.87,0,0,0-10.16,5.16,6.41,6.41,0,0,1-7.13.5,6.21,6.21,0,0,1-3.36-6,6.27,6.27,0,0,1,2.79-5.08,54.19,54.19,0,0,1,17.74-8.18A56.9,56.9,0,0,1,97.21,40,55,55,0,0,1,138,55a55.12,55.12,0,0,1,12.3,17.36,51.89,51.89,0,0,1,4.46,16.4c.17,1.77.24,3.56.3,5.34,0,.64.23.85.86.84,3.08,0,6.17,0,9.25,0Z"/></g></g></svg>